<svg width="768" height="897" viewBox="0 0 768 897" fill="none" xmlns="http://www.w3.org/2000/svg">
<path d="M567.1 539.711C560.923 538.877 555.02 539.948 550.823 534.87C550.226 534.149 549.288 533.718 548.548 533.109C547.017 531.848 545.869 531.976 545.203 533.974C544.191 536.996 542.963 539.781 539.211 540.161C538.831 540.2 538.389 540.514 538.141 540.829C535.204 544.51 531.836 545.588 527.693 542.733C527.332 542.485 526.611 542.504 526.165 542.679C523.011 543.912 520.922 551.376 522.902 554.204C523.022 554.375 523.173 554.615 523.34 554.646C530.045 555.787 527.134 562.788 530.281 566.128C530.925 566.811 530.126 567.715 529.382 568.246C527.297 569.74 525.185 571.199 523.394 573.068C522.03 574.492 520.991 573.417 520.255 572.393C518.883 570.493 517.747 568.417 516.43 566.47C515.038 564.418 513.628 562.571 510.64 562.579C507.927 562.587 506.252 563.107 506.454 566.245C506.524 567.35 506.241 568.421 504.741 568.429C499.687 568.456 494.831 569.934 489.846 570.481C486.789 570.814 484.331 570.244 483.18 566.986C482.979 566.412 482.545 565.512 482.145 565.469C476.417 564.879 474.41 558.11 468.677 557.447C466.511 557.199 465.697 555.139 465.244 553.222C464.697 550.926 463.139 549.537 461.05 549.39C458.574 549.215 456.632 547.989 454.469 547.148C450.237 545.499 446.113 545.712 442.462 548.637C440.385 550.301 438.738 550.065 436.858 548.292C432.645 544.324 430.149 544.805 427.549 549.886C426.06 552.796 421.518 553.641 419.166 551.004C415.445 546.837 413.453 548.738 411.174 552.063C408.709 555.659 405 558.843 404.663 563.308C404.225 569.181 400.95 571.668 396.078 573.724C393.509 574.81 391.206 575.027 388.528 575.233C384.68 575.528 381.029 574.798 377.397 574.717C372.378 574.608 367.227 573.262 361.197 575.008C364.328 572.494 362.243 570.434 362.166 568.332C362.069 565.717 361.034 564.266 358.604 563.359C357.038 562.773 355.717 561.551 354.252 560.674C352.57 559.666 350.841 559.282 349.302 560.911C347.837 562.466 346.566 562.055 345.737 560.43C344.221 557.455 342.291 555.158 338.881 554.235C337.272 553.797 337.117 552.241 337.513 550.755C337.842 549.518 338.319 548.315 338.586 547.07C339.109 544.63 339.435 542.268 335.827 541.973C335.001 541.907 334.005 541.364 334.416 540.282C334.749 539.417 335.695 539.878 336.4 539.96C338.199 540.169 339.989 540.518 341.791 540.557C344.028 540.604 345.365 539.882 346.547 537.388C348.082 534.153 351.054 531.286 354.744 530.432C356.941 529.924 357.922 528.834 358.534 527.147C361.023 520.273 364.91 514.117 368.344 507.732C369.258 506.029 370.185 504.737 372.591 505.959C375.025 507.192 377.126 506.075 378.719 503.984C381.451 500.392 381.3 500.644 384.858 502.887C388.838 505.392 393.501 506.401 398.028 507.51C399.899 507.972 401.492 506.61 402.756 505.249C404.415 503.461 406.341 502.805 408.794 503.046C412.565 503.418 415.817 501.715 419.096 500.113C423.867 497.778 428.533 497.964 433.393 500.342C440.242 503.697 446.408 508.333 453.632 510.951C457.248 512.262 460.294 509.974 460.775 506.23C461.6 499.806 458.701 495.132 454.574 490.846C452.155 488.328 451.19 485.267 451.217 481.858C451.225 480.771 451.438 479.487 450.404 478.921C445.873 476.434 446.555 472.323 447.446 468.54C448.411 464.432 446.105 461.108 445.412 457.458C444.885 454.684 441.815 456.344 439.835 456.6C438.164 456.818 438.025 457.791 438.354 459.393C439.087 462.982 433.668 467.497 430.184 466.395C429.622 466.217 429.238 465.937 429.138 465.34C428.998 464.51 429.242 463.754 430.021 463.466C432.141 462.695 432.529 461.061 432.424 459.099C432.409 458.784 432.417 458.276 432.591 458.179C435.773 456.418 435.637 453.276 436.517 450.27C437.784 445.925 438.11 445.153 434.153 442.341C433.552 441.914 432.444 441.673 432.323 441.169C431.01 435.641 426.223 436.704 422.522 436.118C420.181 435.75 419.855 435.121 420.685 433.089C423.119 427.138 422.816 426.292 417.414 422.634C412.945 419.609 413.348 414.411 418.243 411.943C419.681 411.218 421.146 410.613 422.77 410.415C426.041 410.023 429.304 409.666 431.92 407.242C432.917 406.319 434.389 406.559 435.641 406.71C439.428 407.168 441.741 405.566 442.916 401.986C443.846 399.15 445.09 396.407 445.916 393.545C447.156 389.235 449.609 385.899 453.198 383.304C454.492 382.369 456.167 381.531 456.822 380.224C458.345 377.198 459.806 374.541 463.833 375.13C464.089 375.169 464.534 374.944 464.658 374.715C467.348 369.793 472.782 368.671 476.999 365.925C482.231 362.519 486.924 358.508 491.594 354.439C494.916 351.541 497.16 347.844 499.636 344.206C503.516 338.499 504.528 332.052 506.431 325.799C507.407 322.591 508.128 322.397 510.554 324.814C513.403 327.657 515.364 331.075 516.759 334.814C517.651 337.2 518.984 338.177 521.278 336.494C522.088 335.9 522.774 335.834 523.608 336.346C526.038 337.84 527.859 336.761 529.475 334.907C531.091 333.053 532.591 331.086 534.32 329.348C538.052 325.601 540.889 325.78 543.54 330.392C544.947 332.844 546.668 334.69 548.986 336.013C551.885 337.673 552.59 340.334 551.989 343.154C551.543 345.268 552.148 346.58 553.373 348.054C554.532 349.446 555.466 351.025 556.485 352.526C557.954 354.687 557.745 356.906 557.562 359.489C557.167 365.165 554.291 367.76 549.079 368.551C547.586 368.78 546.835 369.637 546.993 371.22C547.493 376.271 547.435 381.279 545.908 386.186C545.788 386.574 545.691 387.299 545.866 387.404C548.831 389.2 548.648 393.071 551.478 395.255C555.295 398.203 556.101 403.192 556.985 407.75C557.221 408.98 557.218 409.93 558.396 410.597C559.989 411.497 561.64 412.405 560.399 414.779C560.12 415.311 560.562 415.989 561.167 416.397C561.694 416.754 562.101 417.328 562.659 417.599C564.496 418.495 565.194 421.541 567.252 421.153C569.158 420.792 569.003 417.991 569.907 416.346C570.937 414.465 572.577 414.845 574.1 415.474C579.305 417.619 584.572 418.833 590.289 417.867C592.982 417.409 595.757 418.775 598.556 418.243C600.416 417.89 602.013 417.657 603.141 415.485C605.299 411.315 614.272 411.567 616.508 415.567C617.605 417.526 619.023 419.263 620.515 420.959C622.829 423.589 625.368 426.005 627.03 429.221C628.894 432.825 631.414 433.612 635.506 433.166C638.359 432.852 641.27 433.124 644.153 433.073C645.645 433.046 647.211 433.155 648.606 432.744C651.207 431.979 652.962 432.414 653.823 435.195C654.621 437.775 656.237 437.841 658.559 436.964C665.434 434.361 665.446 434.446 666.644 441.875C666.837 443.066 667.14 444.183 666.221 445.203C664.206 447.43 665.772 448.722 667.671 449.121C671.946 450.021 675.914 452.042 680.317 452.415C681.263 452.496 682.189 452.807 683.123 453.012C685.076 453.439 685.487 454.385 683.933 455.77C682.34 457.19 681.084 458.621 681.829 461.011C682.112 461.915 681.457 462.667 680.588 463.02C679.906 463.296 679.181 463.529 678.457 463.618C676.158 463.897 673.07 463.474 672.097 465.705C670.601 469.142 669.678 472.97 670.434 476.884C670.612 477.8 671.322 478.087 672.108 478.044C679.778 477.625 684.91 482.529 690.464 486.66C693.27 488.747 695.343 491.707 698.765 493.107C700.606 493.86 700.331 497.952 698.397 498.682C694.642 500.097 693.359 502.343 693.037 506.541C692.746 510.319 690.762 514.384 685.879 515.319C683.925 515.692 683.166 517.654 681.991 518.981C680.286 520.901 679.174 520.727 677.891 518.578C674.934 513.624 674.205 513.205 668.992 515.761C660.822 519.769 651.959 522.015 643.82 525.882C640.273 527.57 635.46 528.361 633.685 533.245C632.855 535.53 629.883 535.549 628.162 533.66C627.015 532.403 625.868 531.685 624.282 532.69C623.259 533.342 622.438 532.752 621.566 532.434C619.763 531.771 617.953 531.119 616.186 530.37C614.539 529.672 612.919 529.455 612.02 531.27C611.163 532.997 610.605 534.932 612.229 536.651C612.741 537.19 613.43 537.597 613.826 538.202C614.764 539.649 614.609 541.17 613.283 542.233C611.938 543.307 610.438 542.807 609.729 541.434C607.733 537.574 604.365 537.252 600.691 537.605C598.335 537.83 597.036 537.252 596.49 534.56C595.73 530.84 591.7 529.137 588.262 530.731C584.983 532.256 581.557 531.837 578.177 531.585C576.154 531.433 575.166 529.963 575.499 527.95C575.894 525.583 574.864 524.536 572.744 523.679C570.798 522.891 569.089 521.491 567.325 520.288C566.124 519.47 565.074 519.152 564.015 520.49C563.209 521.506 562.027 521.797 560.826 521.592C557.163 520.959 555.136 523.446 552.954 525.634C552.52 526.068 551.896 526.631 552.35 527.271C552.578 527.593 553.334 527.736 553.807 527.663C557.989 527.023 560.562 528.71 562.256 532.62C563.279 534.983 565.186 536.961 567.108 539.7L567.1 539.711Z" fill="#A1D36D"/>
<path d="M564.059 31.5919C562.946 34.3306 561.415 36.6154 561.695 39.583C562.167 44.6297 564.504 47.7292 569.531 48.6835C571.283 49.0171 572.434 49.7308 573.318 51.2282C574.697 53.5596 576.426 54.6806 579.092 52.8264C581.247 51.3252 582.612 53.4665 584.193 54.2966C585.681 55.0802 584.72 56.275 584.48 57.3844C583.894 60.0727 584.495 62.9549 583.084 65.5307C582.681 66.2677 582.596 67.4702 581.798 67.6448C578.465 68.3702 578.468 71.0507 578.065 73.545C577.782 75.2984 576.798 76.7026 575.709 78.0371C574.577 79.4219 572.535 80.3025 573.787 82.8395C574.197 83.6774 572.736 84.2243 571.853 84.6006C569.899 85.4346 569.554 86.5867 570.973 88.3013C574.213 92.2193 574.225 93.7981 570.744 97.654C565.303 103.686 562.555 110.529 563.574 118.78C564.063 122.737 568.593 127.923 572.504 128.501C573.876 128.703 575.248 128.982 576.628 129.056C581.63 129.327 585.985 130.937 589.692 133.885C590.58 134.591 590.785 135.495 590.623 136.457C590.15 139.227 591.902 140.267 594.029 141.05C594.425 141.198 594.863 141.225 595.273 141.341C601.358 143.06 601.463 143.063 601.455 149.27C601.451 152.948 602.389 156.136 604.571 159.131C607.462 163.103 610.059 167.293 612.819 171.366C613.66 172.603 613.892 173.79 613.388 175.276C610.869 182.716 606.257 188.357 599.25 191.921C595.843 193.655 594.719 190.354 593.832 188.558C592.77 186.413 591.739 186.347 589.878 186.809C588.65 187.111 587.266 187.398 586.076 187.135C581.999 186.238 579.213 188.038 577.112 191.188C570.694 200.809 560.753 206.36 551.908 213.164C549.451 215.053 546.552 216.314 543.285 216.143C541.37 216.042 540.797 217.307 540.867 218.8C541.002 221.795 539.526 222.544 536.886 222.117C536.161 222 535.359 221.993 534.65 222.175C531.867 222.893 530.309 221.9 529.228 219.196C527.53 214.96 526.798 214.805 522.43 216.473C521.333 216.892 520.267 217.427 519.136 217.71C517.066 218.23 515.853 219.029 515.167 221.477C513.744 226.527 507.633 228.898 502.35 226.842C499.16 225.6 496.184 223.176 492.653 226.101C492.041 226.605 491.285 226.155 490.909 225.29C489.409 221.83 486.421 219.626 483.758 217.206C481.933 215.542 479.762 214.277 477.057 215.414C475.949 215.879 474.976 215.161 473.972 214.886C472.744 214.549 471.542 213.699 470.348 213.738C467.539 213.827 465.275 213.668 463.942 210.514C463.31 209.025 461.268 208.71 459.71 209.828C457.09 211.709 454.226 212.524 451.017 212.477C449.683 212.458 448.711 213.109 448.149 214.568C446.633 218.486 445.401 219.072 441.374 217.64C437.657 216.317 434.029 214.746 430.382 213.23C427.15 211.884 423.914 210.999 420.48 212.524C418.957 213.199 417.534 212.764 416.217 211.946C412.992 209.94 410.33 207.376 408.295 204.133C407.148 202.306 407.272 200.972 409.256 199.944C410.109 199.501 410.919 198.97 411.775 198.539C415.678 196.573 417.217 193.458 415.926 189.249C415.352 187.375 415.597 185.827 416.097 184.023C417.263 179.822 418.217 175.738 416 171.292C414.566 168.414 414.581 164.802 416.786 161.792C417.321 161.063 417.445 160.302 417.228 159.379C415.484 151.939 414.856 144.227 411.81 137.097C410.481 133.99 410.744 131.271 413.787 129.23C416.554 127.376 416.531 124.312 416.934 121.499C417.283 119.071 417.565 116.608 417.55 114.16C417.531 110.87 417.562 107.736 420.759 105.688C421.402 105.277 421.685 104.415 421.418 103.659C420.131 99.997 422.418 97.4639 424.34 95.0006C427.185 91.3581 430.751 88.4293 434.626 85.8885C439.773 82.5136 444.354 78.6383 446.893 72.7459C447.889 70.4339 450.063 69.0568 452.319 67.9474C456.543 65.872 460.822 63.9247 465.411 62.8114C471.798 61.2636 476.906 57.2719 482.41 54.0445C490.165 49.4942 498.157 45.3823 506.489 42.0773C513.419 39.3269 520.946 38.5705 528.135 36.6348C531.631 35.6922 535.196 34.4896 538.754 34.412C544.173 34.2918 549.633 33.4073 555.052 34.5051C557.272 34.9551 559.28 34.5866 561.078 33.1242C561.857 32.4919 562.57 31.6501 564.055 31.5919H564.059Z" fill="#A1D36D"/>
<path d="M266.352 575.888C266.805 574.034 267.836 573.123 268.871 572.195C269.328 571.788 269.972 571.33 269.631 570.613C269.321 569.957 268.611 569.953 267.945 570.004C265.046 570.225 262.472 571.051 261.003 573.836C260.104 575.543 258.918 576.75 256.853 576.928C256.283 576.978 255.57 577.386 255.236 577.855C251.88 582.549 246.473 583.689 241.625 585.761C238.691 587.014 235.687 586.482 232.928 585.163C228.335 582.968 223.495 581.851 218.479 581.308C216.53 581.094 214.759 580.392 213.154 579.259C205.837 574.1 197.721 570.617 189.292 567.773C186.97 566.99 184.703 566.039 182.389 565.228C180.548 564.581 179.897 563.63 181.346 561.966C183.16 559.887 182.191 558.805 179.986 558.165C179.781 558.106 179.459 558.099 179.393 557.963C176.413 552.059 168.045 553.564 165.092 547.547C164.728 546.802 163.363 545.825 162.825 546.011C159.193 547.272 156.558 544.169 153.271 544.072C150.639 543.994 148.965 542.279 147.775 540.157C145.376 535.863 143.121 531.491 140.206 527.508C139.098 525.995 139.632 524.447 140.392 522.973C141.028 521.739 141.71 520.525 142.404 519.323C143.152 518.023 144.105 516.789 143.012 515.203C141.946 513.655 140.4 513.523 138.749 513.655C138.431 513.682 138.113 513.733 137.795 513.775C132.245 514.532 132.288 514.543 134.067 509C134.974 506.176 135.951 503.406 135.594 500.264C135.296 497.642 141.551 495.66 144.276 497.467C145.148 498.049 146.004 498.806 146.566 499.675C148.329 502.409 150.833 502.053 153.073 500.959C155.139 499.95 156.623 498.146 155.306 495.458C154.91 494.655 155.302 494.011 155.976 493.526C159.79 490.784 162.189 486.8 165.069 483.223C171.099 475.725 177.246 468.187 183.932 461.399C193.849 451.329 202.915 440.68 210.515 428.899C218.793 416.075 226.397 402.777 231.804 388.385C232.602 386.256 233.606 385.592 235.862 386.756C238.404 388.063 241.195 388.878 243.857 389.96C245.958 390.814 247.512 389.367 249.307 388.847C250.167 388.599 251.163 387.772 252.027 388.455C253 389.223 252.089 390.209 251.958 391.112C251.399 394.995 249.69 398.211 246.586 400.64C245.257 401.679 245.07 403.084 245.059 404.651C245.032 408.088 244.683 411.451 243.125 414.628C241.276 418.395 241.83 420.167 245.803 420.997C250.128 421.901 254.508 423.228 259.027 422.549C260.806 422.281 262.55 421.672 263.918 420.326C264.875 419.384 266.053 418.918 267.41 419.004C269.797 419.155 272.045 419 273.94 417.192C274.592 416.571 275.646 416.207 276.626 416.808C277.684 417.456 277.421 418.426 277.212 419.384C277.099 419.904 276.995 420.443 277.006 420.97C277.068 424.489 278.553 425.342 281.614 423.507C283.901 422.134 286.079 420.575 288.3 419.093C290.381 417.704 291.827 418.142 292.114 420.575C292.978 427.848 298.485 431.332 303.644 435.125C304.586 435.816 305.628 436.367 306.628 436.976C307.093 437.259 307.775 437.86 307.349 438.147C305.101 439.672 306.264 442.061 305.632 443.947C304.915 446.08 303.31 444.773 302.26 444.082C298.028 441.289 294.524 442.174 292.741 446.941C292.04 448.819 289.017 449.727 290.114 451.976C290.893 453.579 292.8 454.649 294.253 455.902C295.784 457.221 296.078 458.905 296.055 460.817C296.005 464.529 296.598 468.059 299.547 470.736C300.047 471.19 300.601 471.745 299.733 472.249C297.427 473.579 296.633 476.206 294.629 477.885C291.555 480.457 291.788 486.02 293.757 489.566C296.869 495.167 300.981 499.985 304.675 505.136C306.023 507.018 306.465 509.225 306.74 511.471C306.934 513.062 307.597 513.752 309.326 513.182C310.632 512.747 312.031 512.495 313.403 512.398C316.282 512.197 318.429 511.13 319.809 508.403C320.701 506.645 321.751 505.008 324.522 506.242C326.716 507.22 328.642 505.742 329.859 503.755C331.405 501.23 332.987 500.621 335.812 502.382C339.459 504.652 339.878 504.291 342.269 500.45C344.753 496.463 348.478 494.003 352.714 492.331C355.291 491.315 359.62 493.933 360.306 496.653C360.985 499.341 362.008 501.731 365.062 502.526C366.67 502.945 366.829 503.938 366.325 505.482C365.046 509.423 362.411 512.577 360.461 516.126C359.229 518.372 357.651 520.447 356.617 522.775C355.508 525.269 354.206 527.038 351.175 526.654C350.059 526.514 349.478 526.933 349.272 528.19C348.83 530.863 346.997 531.949 344.416 531.759C342.28 531.604 341.436 532.484 341.788 534.583C342.091 536.399 341.346 537.058 339.486 537C336.998 536.922 334.599 536.961 332.82 534.731C331.96 533.656 331.285 534.098 330.754 535.293C329.231 538.711 330.991 543.843 334.335 545.394C335.014 545.709 335.878 545.871 335.711 546.857C335.572 547.675 334.816 548.032 334.118 548.288C333.08 548.672 332.018 548.474 330.96 548.261C327.409 547.543 323.859 546.814 320.301 546.139C316.802 545.476 313.798 547.035 310.895 548.568C308.93 549.607 307.186 551.089 305.434 552.489C302.648 554.716 299.501 555.344 296.086 554.77C289.401 553.649 282.157 557.843 279.82 564.263C278.363 568.27 275.824 571.311 271.863 572.995C270.045 573.767 268.84 575.679 266.348 575.904L266.352 575.888Z" fill="#A1D36D"/>
<path d="M340.144 404.918C342.384 403.32 343.996 402.622 345.744 402.079C346.767 401.761 348.608 403.995 348.697 401.505C348.775 399.329 348.263 396.838 345.419 396.307C343.52 395.954 341.601 396.124 339.729 396.76C337.687 397.455 335.908 397.75 333.803 396.105C331.982 394.681 329.253 394.577 327.393 396.698C325.8 398.514 324.118 398.747 321.99 397.87C319.913 397.013 318.506 397.296 317.673 399.895C316.068 404.88 314.665 405.791 309.495 405.772C306.933 405.76 304.887 406.536 303.356 408.569C300.333 412.595 296.616 415.039 291.306 414.182C289.853 413.949 288.624 414.674 287.512 415.59C286.028 416.812 284.543 418.045 282.989 419.17C281.16 420.493 279.993 420.536 279.695 417.72C279.234 413.375 275.311 411.862 271.451 414.093C267.409 416.424 262.715 417.382 258.72 419.892C257.805 420.466 256.662 419.834 255.619 419.57C252.976 418.903 250.457 417.692 247.527 418.557C245.833 419.058 244.825 418.251 245.829 416.249C246.937 414.031 247.395 411.625 247.709 409.166C248.108 406.059 249.174 403.254 251.201 400.713C253.999 397.207 254.495 392.381 257.557 388.948C258.068 388.374 258.076 387.447 256.987 387.237C253.441 386.554 250.1 384.184 246.217 386.454C244.527 387.443 236.826 384.394 235.733 382.737C235.082 381.752 235.655 380.91 236.012 380.026C239.105 372.407 242.217 364.796 245.275 357.162C247.786 350.897 249.282 344.4 250.247 337.7C250.848 333.526 253.018 329.678 254.084 325.524C257.673 311.504 258.468 297.043 261.095 282.88C263.146 271.84 263.397 260.563 265.564 249.535C266.936 242.56 270.521 236.353 272.265 229.518C275.614 216.395 279.815 203.439 279.815 189.672C279.815 187.65 280.129 185.622 280.427 183.612C281.036 179.547 285.039 177.025 289.031 178.019C290.268 178.325 290.26 179.345 290.667 180.164C292.539 183.907 291.957 188.368 294.291 192.03C295.411 193.787 296.453 195.358 298.399 196.293C300.996 197.538 303.6 198.826 306.015 200.382C309.305 202.504 312.592 202.585 316.01 200.983C320.831 198.718 326.025 196.871 327.819 191.002C328.238 189.637 329.47 189.381 330.582 189.113C332.97 188.535 335.384 188.143 337.869 188.217C339.307 188.26 340.768 187.961 340.5 190.218C340.403 191.06 341.066 191.619 341.748 191.937C344.496 193.217 345.802 195.692 346.856 198.276C348.639 202.643 350.515 206.976 353.201 210.844C355.949 214.805 355.709 218.944 354.972 223.354C354.251 227.668 353.302 232.09 353.604 236.38C353.906 240.609 356.495 244.321 359.104 247.731C360.573 249.651 361.828 251.769 364.642 252.231C367.704 252.735 370.246 252.328 371.665 249.302C373.095 246.261 375.416 246.063 378.021 247.238C380.873 248.526 383.676 249.705 386.912 249.376C388.365 249.228 388.989 250.206 389.117 251.56C389.408 254.601 388.919 257.84 391.326 260.365C391.481 260.528 391.454 261.18 391.373 261.211C388.71 262.154 388.117 266.258 384.458 265.699C381.99 265.323 380.97 266.681 380.773 268.996C380.637 270.591 380.366 272.177 380.114 273.76C379.811 275.661 378.8 276.914 377.137 278.031C373.103 280.746 368.456 282.504 364.882 285.948C363.429 287.349 361.883 287.496 360.619 285.526C359.693 284.079 357.863 283.951 356.701 283.089C353.414 280.657 349.663 282.151 346.554 281.278C342.109 280.029 340.38 282.93 337.636 284.447C336.582 285.029 336.57 286.185 336.512 287.287C336.171 293.788 336.532 300.619 339.481 306.105C342.837 312.35 343.849 319.53 348.07 325.291C349.597 327.374 348.372 328.836 346.585 329.659C344.415 330.656 343.83 332.223 344.287 334.306C344.744 336.381 343.915 337.138 341.946 337.502C338.656 338.108 338.14 339.876 340.411 342.425C341.186 343.294 342.353 343.93 342.229 345.28C341.969 348.127 342.38 350.253 346.054 349.625C346.825 349.493 347.302 350.152 347.267 350.808C347.19 352.158 347.291 353.911 345.814 354.427C341.446 355.952 338.946 358.892 337.218 363.179C335.83 366.627 331.92 367.407 328.621 365.731C325.575 364.187 324.893 364.695 324.587 368.241C324.343 371.042 325.04 373.222 327.366 374.956C328.718 375.968 329.869 377.295 330.962 378.602C332.137 380.01 333.582 380.736 335.353 380.93C335.881 380.988 336.725 380.837 336.888 381.108C339.869 386.054 344.33 383.04 347.86 382.714C353.403 382.206 357.201 384.747 360.146 388.451C364.03 393.335 365.394 394.192 371.758 392.866C376.881 391.799 382.063 390.542 386.981 393.696C387.698 394.158 388.477 394.538 389.156 395.046C390.171 395.802 391.535 396.656 391.047 398.048C390.594 399.328 389.195 398.607 388.183 398.498C386.381 398.301 385.493 399.356 384.753 400.795C381.292 407.517 377.362 414.003 375.517 421.482C374.885 424.035 373.506 426.421 372.359 428.826C371.273 431.095 364.743 432.716 362.875 431.25C362.076 430.626 362.34 429.927 362.867 429.311C365.316 426.444 363.2 424.043 361.921 421.731C360.611 419.36 358.534 419.182 355.852 419.787C352.294 420.59 348.632 419.985 345.132 418.755C344.361 418.484 343.678 418.201 343.655 417.32C343.632 416.474 344.357 416.393 345.008 416.3C348.139 415.861 348.039 414.17 346.101 412.553C343.554 410.431 344.752 405.981 340.144 404.911V404.918Z" fill="#A1D36D"/>
<path d="M502.799 319.674C503.346 326.078 499.675 331.955 496.532 338.03C493.443 344.004 489.587 349.283 483.917 353.081C483.025 353.678 482.27 354.288 481.111 354.419C470.956 355.591 463.07 360.898 456.539 368.404C454.101 371.208 451.783 372.186 448.226 370.708C446.482 369.983 445.249 370.25 443.943 371.581C439.102 376.523 438.629 378.691 441.532 385.263C442.257 386.907 441.997 388.428 441.563 389.941C440.707 392.912 439.618 395.814 438.738 398.778C438.292 400.271 437.362 401.225 435.978 401.66C429.467 403.704 422.933 405.679 416.414 407.692C414.91 408.157 414.201 407.23 413.193 406.315C406.24 400.003 400.117 392.749 392.071 387.672C386.563 384.196 380.424 382.415 374.219 380.817C371.731 380.177 369.394 381.193 367.077 382.051C363.747 383.28 361.968 382.101 361.79 378.497C361.639 375.398 361.747 372.287 360.197 369.428C359.844 368.776 359.713 367.861 360.705 367.554C366.476 365.785 369.193 359.645 375.022 357.81C382.839 355.347 388.149 348.845 394.927 344.64C401.357 340.652 407.221 335.815 413.961 332.211C417.154 330.504 419.592 327.362 422.328 324.821C422.681 324.496 423.069 323.727 422.921 323.417C421.065 319.573 424.82 317.451 425.611 314.433C426.018 312.877 427.417 312.757 428.739 312.812C432.351 312.959 435.095 311.353 437.37 308.692C437.994 307.963 438.823 307.388 439.366 306.609C444.09 299.84 450.958 296.915 458.76 295.561C460.198 295.313 461.446 294.952 462.376 296.55C463.011 297.64 464.279 297.788 465.395 298.164C471.321 300.165 477.708 300.631 483.312 303.781C484.859 304.65 486.948 304.126 488.672 303.661C491.947 302.776 494.443 303.575 496.641 306.163C498.23 308.032 500.009 309.731 501.497 311.71C503.14 313.898 502.749 316.377 502.799 319.678V319.674Z" fill="#A1D36D"/>
<path d="M170.614 699.149C171.114 702.299 171.315 704.583 169.564 707.442C162.227 719.433 150.464 726.14 139.523 733.891C138.271 734.775 137.078 734.41 135.861 734.061C132.121 732.983 128.791 733.371 125.823 736.214C124.059 737.902 121.943 739.213 120.009 740.726C117.889 742.39 115.85 743.255 112.975 742.064C110.723 741.133 109.459 743.519 108.107 744.958C107.421 745.687 107.378 747.018 106.076 747.188C105.991 747.08 105.874 746.998 105.878 746.928C106.076 744.9 107.522 742.487 105.278 741.04C103.177 739.686 101.588 741.94 99.9058 742.859C98.4292 743.666 97.096 744.213 95.3907 743.507C93.3211 742.654 91.3638 744.488 89.1392 743.837C86.8836 743.177 85.5309 742.312 85.8875 739.698C86.2208 737.265 86.2596 734.791 86.558 732.351C86.7712 730.617 86.1317 729.492 84.6318 728.7C80.6669 726.602 76.7099 724.375 72.1676 723.921C68.5709 723.564 65.8308 721.532 62.9008 719.848C60.4669 718.448 57.9787 717.4 55.1649 716.97C51.7078 716.442 48.8204 714.499 46.0377 712.516C44.6502 711.531 43.8092 711.698 42.4217 712.664C38.7398 715.228 34.7672 717.354 30.0582 717.001C27.5197 716.811 26.8182 717.889 27.1863 720.209C27.6708 723.265 28.0351 726.342 28.5157 729.398C28.7754 731.055 28.6707 731.846 26.4965 731.776C22.6673 731.656 18.8187 732.048 14.9818 732.269C13.3657 732.362 12.3076 731.846 11.9859 730.128C11.5945 728.033 10.1682 726.931 8.27688 726.109C3.40901 723.983 1.40916 719.103 3.18422 714.087C3.66481 712.73 2.68426 712.171 1.71534 711.647C-0.489926 710.449 -0.470548 708.998 1.2115 707.342C3.78496 704.805 4.4632 702.209 2.54474 698.726C1.54481 696.907 1.84324 694.358 1.61457 692.135C1.54481 691.453 1.90137 690.909 2.58349 690.634C5.34686 689.517 8.05984 687.678 11.0015 687.752C16.8809 687.899 21.7139 685.091 26.6399 682.755C29.7598 681.274 32.217 681.262 34.9842 683.019C39.2126 685.704 43.4371 688.357 48.1383 690.242C51.6226 691.639 55.0332 693.062 58.7964 693.458C61.2032 693.71 63.1488 694.556 64.7301 696.654C67.0013 699.672 69.6794 702.295 74.0628 701.81C75.7719 701.62 76.5355 703.199 77.4928 704.347C80.0352 707.392 81.2328 707.221 82.7288 703.563C83.6125 701.406 84.6705 701.1 86.1123 702.993C86.8215 703.924 87.306 705.03 88.0462 705.93C89.2942 707.454 90.0732 711.077 92.7087 706.783C93.5846 705.359 95.9604 706.108 97.5417 706.519C100.026 707.163 101.549 706.31 103.468 704.665C107.471 701.236 111.525 697.512 117.397 697.601C119.854 697.64 121.133 696.577 121.687 693.993C122.272 691.27 122.431 688.508 122.939 685.785C123.299 683.838 124.156 683.644 125.846 684.28C129.756 685.754 133.024 687.41 134.105 692.232C134.853 695.564 137.291 698.21 141.566 697.938C145.213 697.706 147.685 700.103 150.034 702.496C151.158 703.641 152.301 704.785 153.259 706.065C155.076 708.486 156.851 708.676 160.126 708.362C166.215 707.776 168.11 703.932 170.598 699.141L170.614 699.149Z" fill="#A1D36D"/>
<path d="M182.691 673.139C179.017 679.113 182.695 685.847 180.327 692.29C178.951 686.891 174.319 685.215 170.455 682.697C169.095 681.813 167.913 681.662 166.308 682.395C163.747 683.566 161.413 686.266 158.441 685.393C152.643 683.69 146.589 682.426 141.702 678.453C141.461 678.256 141.047 677.926 141.093 677.775C142.64 672.646 137.369 672.902 135.315 670.804C132.303 667.728 127.865 666.25 125.087 662.704C124.044 661.374 123.048 662.328 122.021 662.89C118.761 664.679 115.611 666.696 111.537 665.897C109.623 665.52 109.731 667.219 110.27 668.205C111.998 671.355 111.045 674.241 109.661 677.08C107.952 680.587 107.871 685.742 101.367 684.233C99.4567 683.791 96.9917 685.595 94.8175 686.464C92.8254 687.263 91.1433 687.151 89.6473 685.413C88.4652 684.039 87.0777 682.845 85.8414 681.514C83.078 678.543 80.1596 676.13 75.7375 678.1C75.0864 678.391 74.2686 678.291 74.067 677.643C73.4702 675.734 72.3152 673.562 72.7803 671.882C73.3268 669.915 73.319 667.883 73.9547 665.997C74.3732 664.752 74.4856 663.767 73.5089 662.774C73.2376 662.499 72.9237 661.886 73.0516 661.661C76.0824 656.222 69.7767 658.573 68.6372 656.505C68.1527 655.625 66.8195 656.819 66.6412 657.758C66.0599 660.83 64.3158 661.695 61.2657 661.761C58.4635 661.823 56.8396 664.551 54.8398 666.265C51.6074 669.035 50.4292 668.899 48.4798 665.051C47.5612 663.239 46.3946 663.243 45.2474 664.496C43.0654 666.874 41.0462 666.106 38.7169 664.717C35.0621 662.537 32.7057 659.356 30.8764 655.636C29.0703 651.967 27.0162 648.677 22.9816 646.765C20.009 645.353 17.9277 642.54 16.1488 639.681C15.2303 638.203 15.4279 637.121 17.0557 636.31C24.4273 632.648 30.8997 627.45 38.2828 623.796C41.8252 622.043 45.2048 619.855 49.4564 621.55C51.1075 622.21 52.1888 623.106 52.2353 625.003C52.2934 627.268 53.2352 629.184 54.9483 630.612C59.2464 634.185 61.971 638.871 64.6026 643.681C65.7847 645.837 66.6877 649.026 69.8193 648.584C72.9974 648.138 74.2182 645.194 75.0127 642.323C75.6755 639.93 79.9077 637.524 83.0858 638.258C86.1669 638.967 89.0078 638.777 91.7983 637.435C93.6276 636.555 95.0578 636.904 96.2747 638.518C97.5886 640.259 99.5264 640.744 101.437 640.193C104.449 639.332 107.607 639.716 110.584 638.82C112.026 638.386 112.855 638.777 113.518 640.31C114.723 643.107 115.952 645.702 120.153 643.898C122.792 642.765 127.3 646.171 128.393 649.212C128.726 650.139 128.288 651.645 129.757 651.784C130.885 651.893 131.276 650.826 131.586 649.868C131.842 649.08 132.381 649.038 133.102 649.325C135.621 650.322 138.853 654.802 138.795 657.56C138.756 659.368 139.272 660.881 140.268 662.347C143.512 667.119 146.624 671.863 152.096 674.632C155.646 676.432 158.941 676.774 161.991 674.485C164.874 672.321 167.432 672.553 170.277 674.117C172.444 675.307 174.285 675.505 175.362 672.639C175.691 671.762 176.408 670.777 177.234 672.53C178.931 676.126 179.156 676.122 182.675 673.139H182.691Z" fill="#A1D36D"/>
<path d="M483.402 290.126C477.712 290.126 473.22 290.06 468.732 290.153C466.446 290.2 464.969 289.304 463.767 287.364C460.865 282.667 458.431 277.612 454.005 274.008C453.218 273.368 453.408 272.22 453.315 271.281C452.4 262.177 453.745 253.1 453.691 244.007C453.683 242.8 454.369 241.792 454.997 240.783C458.446 235.248 461.903 229.716 465.279 224.134C466.558 222.02 468.151 220.821 470.744 221.023C473.17 221.213 475.67 220.069 477.956 222.167C478.848 222.986 480.2 222.031 480.619 220.709C481.2 218.874 482.169 219.32 483.2 220.228C485.526 222.272 487.928 224.254 488.866 227.404C489.886 230.837 492.75 232.971 494.738 235.729C495.409 236.66 496.44 236.481 497.385 236.466C500.152 236.423 502.668 237.145 504.873 238.848C507.912 241.191 511 243.472 513.958 245.912C515.709 247.355 517.004 249.267 517.639 251.459C518.783 255.384 520.267 259.143 522.507 262.565C523.476 264.047 523.24 265.117 521.814 266.048C521.457 266.281 521.128 266.568 520.833 266.875C519.287 268.488 517.101 270.129 517.616 272.453C518.077 274.528 520.814 274.09 522.538 274.757C524.271 275.428 526.821 275.366 526.774 277.856C526.732 280.196 524.767 281.72 522.639 282.275C514.585 284.377 506.997 287.981 498.831 289.676C493.339 290.817 487.742 289.742 483.402 290.122V290.126Z" fill="#A1D36D"/>
<path d="M106.277 559.452C101.84 551.721 102.716 549.506 110.878 547.788C116.036 546.702 120.621 544.072 125.633 542.59C128.683 541.69 130.892 541.635 133.012 544.653C135.217 547.792 138.519 549.685 142.228 551.229C151.402 555.05 159.963 560.244 168.254 565.628C172.652 568.487 176.745 572.409 180.121 576.746C182.597 579.931 185.737 582.2 189.446 583.856C194.201 585.982 197.658 589.943 201.654 593.139C202.639 593.927 202.445 594.865 201.705 595.645C201.053 596.332 200.317 597.049 199.472 597.414C193.756 599.893 187.872 601.58 181.551 600.405C180.539 600.215 179.307 599.962 178.908 598.814C176.869 592.933 171.346 593.003 166.703 591.638C165.789 591.37 164.765 591.494 164.25 590.493C161.208 584.609 155.561 583.697 149.887 583.243C144.224 582.789 142.147 581.595 140.248 576.947C139.597 575.353 139.612 574.337 141.352 573.654C142.244 573.305 143.081 572.793 143.616 571.932C144.019 571.284 144.457 570.593 143.91 569.868C143.406 569.197 142.643 569.112 141.879 569.383C141.077 569.666 140.275 569.969 139.5 570.322C138.062 570.977 137.562 570.589 137.752 568.995C138.105 566.066 136.318 563.417 136.543 560.473C136.62 559.491 135.748 559.022 134.996 558.603C133.148 557.583 131.779 556.089 130.954 554.185C130.198 552.443 128.853 551.954 127.144 551.799C120.873 551.229 115.199 553.607 109.386 555.317C107.378 555.911 107.839 558.238 106.281 559.452H106.277Z" fill="#A1D36D"/>
<path d="M113.68 607.628C112.889 606.476 113.211 605.618 113.273 604.784C113.331 604.001 113.312 603.275 112.483 602.868C111.676 602.472 111.192 602.69 110.634 603.45C109.541 604.943 108.89 603.857 108.463 602.837C107.89 601.468 107.436 600.044 106.94 598.64C105.696 595.102 103.766 592.518 99.5959 592.072C97.5302 591.851 95.9605 590.362 95.321 588.181C94.8714 586.653 94.0808 585.218 92.2708 585.505C90.1974 585.835 87.713 584.795 86.1744 587.25C83.1436 592.08 78.0471 593.263 73.0126 594.132C69.8268 594.683 66.2262 588.825 67.1564 584.725C68.0827 580.652 70.35 577.878 74.6248 576.385C82.3026 573.704 89.9919 573.359 97.8712 574.775C100.565 575.26 103.208 574.93 105.801 574.255C107.336 573.856 108.688 573.953 109.405 575.411C110.618 577.875 112.634 577.851 114.847 577.545C116.009 577.386 117.176 577.262 118.343 577.11C121.28 576.726 123.555 577.409 124.714 580.528C125.358 582.258 126.943 583.375 128.272 584.605C129.954 586.157 131.233 587.7 131.272 590.299C131.307 592.573 133.148 593.674 135.462 593.798C140.213 594.058 143.593 597.329 147.507 599.416C148.057 599.71 148.437 600.277 148.364 601.018C148.17 603.004 143.224 607.923 141.221 607.996C139.659 608.054 138.314 608.667 137.02 609.404C133.438 611.437 129.466 612.221 125.544 613.206C124.4 613.493 123.707 613.047 123.044 612.279C122.063 611.146 120.842 610.149 120.141 608.865C118.47 605.808 116.451 605.223 113.68 607.628Z" fill="#A1D36D"/>
<path d="M279.152 159.026C279.052 152.567 280.858 146.562 283.807 140.903C289.299 130.355 296.171 120.657 302.616 110.696C303.077 109.982 303.635 109.311 304.232 108.706C306.321 106.607 307.259 106.7 308.387 109.369C309.677 112.422 310.84 115.49 313.665 117.55C314.572 118.213 314.913 119.241 314.801 120.401C314.309 125.584 313.231 130.728 313.945 135.996C314.111 137.225 313.014 138.102 312.146 138.901C309.922 140.949 308.34 143.215 307.36 146.264C306.247 149.724 304.453 153.366 299.55 152.823C298.368 152.691 297.64 153.494 297.047 154.495C296.229 155.868 295.244 157.141 294.368 158.479C292.624 161.144 290.667 162.273 287.477 160.384C285.361 159.131 284.342 160.132 284.261 162.812C284.218 164.29 285.648 166.587 282.683 166.746C280.164 166.881 279.614 164.732 279.207 162.866C278.939 161.641 279.156 160.31 279.156 159.026H279.152Z" fill="#A1D36D"/>
<path d="M126.749 624.176C133.853 622.435 139.503 619.471 145.453 617.244C146.987 616.67 148.363 617.364 149.231 618.358C153.084 622.749 157.882 620.988 162.219 620.119C165.11 619.541 166.474 619.545 167.277 622.663C168.094 625.852 170.679 628.032 172.718 630.492C176.915 635.558 176.939 635.992 173.241 641.214C172.435 642.354 171.389 643.522 171.559 644.941C171.993 648.495 170.176 648.246 167.85 647.378C167.249 647.153 166.459 647.059 166.106 646.621C162.618 642.335 157.646 643.359 153.146 643.083C145.22 642.602 143.697 640.942 142.356 635.434C142.104 634.406 141.585 633.319 140.569 633.502C137.488 634.053 136.883 631.962 135.659 629.89C134.357 627.691 131.686 626.779 129.376 625.67C128.807 625.398 128.276 625.049 126.752 624.172L126.749 624.176Z" fill="#A1D36D"/>
<path d="M66.2301 620.801C68.6524 620.212 70.3733 622.57 72.7103 622.233C76.9232 621.62 81.2523 621.422 85.3218 620.293C89.4881 619.137 93.5809 619.413 97.7123 619.587C99.8246 619.676 101.542 620.832 102.46 622.908C102.762 623.59 103.158 624.231 103.499 624.898C106.526 630.825 106.506 630.794 101.053 634.041C100.154 634.576 99.6463 634.611 98.8595 633.89C95.6272 630.91 94.1894 630.666 90.5385 632.916C88.8913 633.932 87.7635 634.091 85.9535 633.083C82.9033 631.388 79.6129 631.26 76.6286 633.614C76.0395 634.076 75.4543 634.549 74.8303 634.96C73.4312 635.88 71.7104 638.153 70.6717 637.296C69.447 636.291 68.5013 633.979 68.7532 631.954C68.9741 630.197 68.354 629.599 66.7417 629.545C63.0521 629.421 61.8894 626.05 59.7849 623.932C59.002 623.144 59.8353 622.403 60.7034 622.008C62.4707 621.205 64.2729 620.565 66.2263 620.805L66.2301 620.801Z" fill="#A1D36D"/>
<path d="M438.799 22.3207C433.831 23.4418 429.808 26.9408 424.541 26.1416C423.785 26.0292 422.894 26.5451 422.118 26.8864C419.111 28.2092 418.933 29.1829 421.386 31.7703C419.541 31.7703 417.867 31.8944 416.216 31.747C411.371 31.3164 407.414 32.8836 404.298 36.6425C403.767 37.2826 403.046 38.0662 402.31 38.1903C397.624 38.9894 393.702 41.8872 388.726 42.2906C383.048 42.7483 377.017 43.5319 373.118 48.924C371.986 50.4911 370.545 51.6471 368.444 49.4632C366.351 47.2908 367.328 46.0107 368.94 44.428C371.145 42.2634 373.525 40.2269 374.851 37.3175C375.292 36.3438 376.095 36.0607 377.164 35.9365C393.535 34.0474 409.503 30.4863 424.82 24.2719C425.215 24.1128 425.653 23.9926 425.983 23.7404C429.862 20.7419 434.114 20.9319 438.796 22.3207H438.799Z" fill="#A1D36D"/>
<path d="M507.946 15.9084C499.427 17.6657 491.234 22.0569 482.157 19.4152C478.189 18.2592 475.495 19.2755 472.701 21.9987C469.216 25.393 464.054 25.6723 459.992 23.0422C458.066 21.7931 456.093 20.1988 457.024 17.6075C457.942 15.0473 460.38 14.6012 462.872 14.733C463.085 14.7447 463.31 14.733 463.508 14.799C475.445 18.4726 487.417 15.9899 499.385 15.0511C502.199 14.83 505.039 15.0201 507.873 15.0201C507.9 15.3188 507.923 15.6175 507.95 15.9123L507.946 15.9084Z" fill="#A1D36D"/>
<path d="M590.474 0C581.669 4.4106 573.313 9.53498 563.058 8.80569C561.062 8.66216 559.38 9.68626 557.922 11.075C557.198 11.7655 556.721 12.9137 555.407 12.7741C555.062 7.45187 559.88 2.24215 564.941 2.51757C573.115 2.96368 581.022 0.787469 589.083 0.120254C589.49 0.0853415 589.893 0.0504291 590.474 0.00387916V0Z" fill="#A1D36D"/>
<path d="M165.998 612.981C163.715 612.461 161.684 614.226 159.277 614.094C157.289 613.986 155.751 613.768 155.103 611.573C154.871 610.789 154.251 610.118 153.793 609.404C153.173 608.435 151.135 607.864 152.301 606.402C153.46 604.951 155.142 603.636 157.293 604.517C161.343 606.173 164.866 608.795 168.649 610.944C169.265 611.294 169.579 611.899 169.056 612.543C168.25 613.54 167.188 613.349 166.002 612.985L165.998 612.981Z" fill="#A1D36D"/>
<path d="M328.18 78.8788C327.816 83.9605 323.022 88.9065 318.289 89.5543C316.371 89.8181 314.545 90.1982 312.635 90.8189C315.297 89.1664 317.913 87.4324 320.634 85.8807C323.514 84.2398 325.397 81.5128 328.18 78.8788Z" fill="#A1D36D"/>
<path d="M187.155 572.483C191.313 573.895 195.987 574.123 199.879 577.844C194.054 578.592 190.655 575.419 187.155 572.483Z" fill="#A1D36D"/>
<path d="M334.583 73.8902C338.823 71.0041 343.024 67.9318 348.384 66.7875C344.292 70.2787 339.47 72.8467 334.583 73.8902Z" fill="#A1D36D"/>
<path d="M249.186 596.743C249.019 597.674 248.507 598.667 247.333 598.671C246.093 598.671 245.686 597.48 245.62 596.657C245.341 592.984 242.888 593.166 240.578 593.95C234.346 596.06 228.462 595.435 222.587 592.631C221.97 592.336 221.401 592.084 220.862 591.867L180.33 648.607C181.237 649.235 181.764 650.209 181.489 651.904C181.264 653.293 182.749 653.378 183.582 653.96C185.458 655.268 188.07 656.195 187.849 659.046C187.64 661.722 187.508 664.353 187.942 667.002C188.209 668.631 187.593 669.818 185.872 669.946C183.907 670.09 184.016 670.885 184.593 672.413C185.562 674.974 187.93 677.708 184.093 680.075C183.361 680.525 183.609 681.65 183.764 682.503C184.074 684.245 184.431 685.983 184.721 687.728L251.422 594.353C250.247 594.559 249.465 595.195 249.186 596.743Z" fill="#A84600" fill-opacity="0.1"/>
<path d="M541.881 629.235C542.032 627.943 541.172 627.031 540.649 625.999C539.831 624.382 538.614 622.818 538.796 620.949C539.269 616.139 536.529 613.439 532.905 611.138C531.293 610.118 529.549 609.21 528.402 607.589C528.076 607.127 527.549 606.592 527.464 606.064L508.628 632.431C511.174 633.028 513.659 633.824 515.969 635.065C518.685 636.527 521.03 636.174 523.573 635.197C527.15 633.82 530.719 632.419 534.297 631.042C535.789 630.468 537.172 630.643 538.583 631.461C539.254 631.849 539.796 632.842 540.432 633.176L541.974 631.019C541.916 630.414 541.815 629.785 541.881 629.235Z" fill="#A84600" fill-opacity="0.1"/>
<path d="M310.235 553.168C306.115 558.13 301.224 559.767 295.225 559.033C289.667 558.355 286.268 560.764 284.466 566.315C288.404 564.658 287.446 567.742 287.597 569.53C288.981 569.15 290.148 568.471 291.225 568.592C295.554 569.073 299.852 569.864 304.228 569.042C304.379 569.015 304.534 569.022 304.681 569.061L319.029 548.979C315.502 548.703 312.479 550.464 310.231 553.172L310.235 553.168Z" fill="#A84600" fill-opacity="0.1"/>
<path d="M286.795 584.415C284.88 583.166 282.718 582.46 280.389 582.879C273.498 584.124 266.61 585.385 259.735 586.719L255.693 592.379C255.503 592.926 255.193 593.364 254.766 593.678L185.388 690.801C185.853 691.639 186.678 691.961 187.981 691.883C190.221 691.747 192.484 691.968 194.713 691.778C197.193 691.565 198.631 692.116 198.278 695.002C198.069 696.705 198.79 697.919 200.685 698.132C202.592 698.346 204.495 698.749 206.406 698.78C208.948 698.819 211.541 698.032 212.983 696.03C214.51 693.908 212.386 692.073 211.258 690.328C209.58 687.728 207.51 685.409 206.033 682.643C204.91 680.537 204.65 678.764 206.119 676.719C206.843 675.711 207.793 674.497 205.948 673.209C202.995 671.153 203.138 669.593 206.506 668.143C210.246 666.533 213.622 664.108 217.436 662.84C220.734 661.742 223.583 659.407 227.121 659.166C229.784 658.984 232.458 658.996 235.097 658.491C236.981 658.131 238.644 658.286 240.015 659.601L292.035 586.777C290.229 586.257 288.477 585.509 286.799 584.415H286.795Z" fill="#A84600" fill-opacity="0.1"/>
<path d="M515.542 695.58C519.701 690.964 519.883 691.181 516.697 685.866C515.058 683.136 513.081 680.537 511.415 677.809L490.672 706.845C492.133 706.356 493.594 705.867 495.059 705.386C502.311 703.005 509.996 701.74 515.546 695.58H515.542Z" fill="#A84600" fill-opacity="0.1"/>
<path d="M295.562 572.773C294.198 572.537 292.841 572.106 291.492 572.812C289.264 573.984 288.884 576.028 290.407 578.647C291.876 581.168 293.349 582.541 294.891 582.77L302.468 572.164C300.298 573.06 297.976 573.189 295.562 572.773Z" fill="#A84600" fill-opacity="0.1"/>
<path d="M480.548 568.89C478.111 565.76 473.204 564.654 470.468 561.179C470.367 561.051 470.065 561.035 469.855 561.035C465.325 561.039 463.79 557.687 462.368 554.274C462.092 553.618 462.309 552.621 461.263 552.641C460.864 552.648 460.476 552.621 460.1 552.571L356.034 698.253C356.286 698.563 356.538 698.873 356.79 699.18C359.371 702.302 361.057 705.588 360.685 709.948C360.297 714.456 362.065 715.418 366.402 713.703C366.998 713.467 367.572 713.172 368.181 712.974C370.064 712.357 371.886 710.778 373.924 711.655C375.153 712.183 376.331 712.815 377.467 713.517L480.672 569.038C480.634 568.987 480.591 568.937 480.552 568.887L480.548 568.89Z" fill="#A84600" fill-opacity="0.1"/>
<path d="M508.306 670.804C506.361 662.727 503.648 654.802 502.888 646.439C502.733 644.724 502.535 643.009 502.291 641.303L442.381 725.17C443.175 726.031 443.974 726.889 444.776 727.746C447.144 730.287 448.605 733.037 447.439 736.761C446.946 738.328 447.28 740.155 447.237 741.866C447.21 742.983 447.822 743.278 448.853 743.328C454.349 743.588 457.562 740.71 457.829 735.205C457.86 734.565 457.915 733.91 457.833 733.281C457.364 729.612 458.744 726.621 461.069 723.902C462.248 722.525 463.387 721.074 464.298 719.514C466.224 716.198 468.96 714.076 472.596 712.893C477.378 711.337 482.142 709.719 486.909 708.113L510.147 675.583C509.36 674.062 508.713 672.487 508.306 670.808V670.804Z" fill="#A84600" fill-opacity="0.1"/>
<path d="M211.386 596.196C210.014 598.609 207.84 600.928 209.108 604.179C209.119 604.21 209.135 604.241 209.146 604.268L218.522 591.141C215.483 590.559 213.743 592.045 211.383 596.196H211.386Z" fill="#A84600" fill-opacity="0.1"/>
<path d="M206.22 605.971C205.085 604.97 204.112 604.284 202.546 605.098C198.764 607.077 194.636 608.237 190.768 610.075C187.559 611.604 183.912 612.744 180.315 612.259C177.017 611.817 173.254 612.849 170.975 616.045C169.095 618.683 169.789 621.387 171.37 623.842C172.986 626.356 174.758 628.781 176.618 631.12C178.963 634.06 179.439 637.268 178.408 640.775C177.959 642.307 177.47 643.84 176.827 645.298C176.257 646.586 176.451 647.245 177.87 647.622C177.955 647.645 178.04 647.668 178.122 647.692L207.298 606.848C206.906 606.58 206.538 606.254 206.216 605.967L206.22 605.971Z" fill="#A84600" fill-opacity="0.1"/>
<path d="M500.998 634.413C500.723 633.277 499.653 630.771 502.788 631.31C503.908 631.5 505.029 631.694 506.149 631.907L527.48 602.042C527.143 601.813 526.775 601.588 526.426 601.336C525.136 600.408 523.271 599.617 524.566 597.309C527.597 591.898 524.663 585.97 518.686 585.295C514.02 584.772 511.951 583.666 510.664 580.314L405.617 727.366C407.939 727.913 410.291 728.386 412.465 729.282C416.031 730.752 418.167 729.546 419.674 726.384C420.372 724.922 421.337 723.921 423.089 723.944C425.868 723.983 427.34 722.404 428.162 719.91C428.48 718.948 428.813 717.249 429.918 717.563C432.813 718.393 436.41 718.49 438.324 720.678C439.13 721.597 439.952 722.509 440.774 723.413L501.757 638.04C501.533 636.826 501.281 635.616 500.99 634.409L500.998 634.413Z" fill="#A84600" fill-opacity="0.1"/>
<path d="M509.752 577.044C508.896 572.991 506.691 571.389 502.637 572.013C499.896 572.436 497.18 573.026 494.443 573.476C489.808 574.236 485.824 574.061 482.281 570.787L379.401 714.809C380.459 715.565 381.479 716.38 382.471 717.222C383.44 718.044 382.727 719.185 382.424 720.213C381.576 723.071 380.475 725.868 380.394 728.921C380.355 730.45 380.905 730.903 382.273 730.291C384.227 729.414 386.412 729.166 388.18 730.081C391.9 732.013 395.555 730.232 399.222 730.415C400.074 730.457 400.659 729.945 400.656 729.038C400.644 726.788 401.772 726.543 403.179 726.788L509.845 577.463C509.814 577.324 509.783 577.184 509.752 577.041V577.044Z" fill="#A84600" fill-opacity="0.1"/>
<path d="M416.782 552.699C415.259 550.976 414.759 551.675 413.755 552.947C409.887 557.843 407.294 563.266 406.825 569.558C406.662 571.726 405.697 573.026 403.686 573.887C400.95 575.062 398.178 576.226 395.756 578.034C394.675 578.84 393.446 579.011 392.121 579.003C389.249 578.984 386.222 577.615 383.586 579.938C383.404 580.097 382.873 580.109 382.672 579.961C379.331 577.518 375.63 577.809 371.785 577.673L300.554 677.387C301.003 677.716 301.453 678.054 301.751 678.597C303.112 681.029 305.146 680.921 307.208 679.679C311.882 676.867 312.037 676.875 314.417 681.797C314.739 682.464 315.022 683.167 315.212 683.88C315.894 686.448 317.025 686.022 318.355 684.389C321.335 680.73 324.606 677.387 328.366 674.493C330.73 672.673 331.939 670.23 332.16 667.053C332.451 662.855 334.776 659.636 338.566 657.708C340.469 656.738 342.109 657.075 341.934 659.651C341.814 661.451 342.322 662.413 343.326 662.778L420.243 555.104C418.971 554.623 417.778 553.831 416.786 552.707L416.782 552.699ZM324.025 671.956C323.905 674.671 320.544 680.222 318.909 680.106C316.812 679.958 313.421 676.549 313.429 674.598C313.44 671.331 316.115 669.136 320.231 669.14C322.339 668.755 324.164 668.841 324.029 671.956H324.025Z" fill="#A84600" fill-opacity="0.1"/>
<path d="M453.322 549.506C450.241 547.807 447.555 549.103 445.319 550.806C441.424 553.766 438.052 553.932 434.583 550.301C432.878 548.521 432.231 548.684 431.149 550.841C429.471 554.184 426.06 555.864 422.716 555.635L346.175 662.785C348.601 662.588 350.109 663.72 350.818 666.222C351.078 667.138 351.492 668.042 351.992 668.852C355.345 674.272 355.635 679.268 351.589 684.815C348.38 689.21 348.919 689.594 352.322 693.71C353.054 694.598 353.783 695.491 354.508 696.383L457.717 551.896C456.182 551.256 454.775 550.305 453.318 549.502L453.322 549.506Z" fill="#A84600" fill-opacity="0.1"/>
<path d="M361.039 578.27C359.888 578.581 358.36 579.698 357.473 578.515C356.512 577.231 356.861 575.407 357.45 573.895C359.771 567.932 359.771 567.975 354.613 564.034C353.031 562.823 351.605 562.478 350.074 563.976C348.578 565.442 347.218 565.554 345.974 564.534L284.323 650.838C285.009 650.826 285.784 650.954 286.687 651.229C288.509 651.788 290.21 652.82 292.055 653.216C294.427 653.724 296.71 653.98 297.152 657.044C297.303 658.103 298.365 658.472 299.291 658.778C304.399 660.477 299.919 665.315 302.306 668.084C303.206 669.128 301.733 670.261 300.527 670.947C298.4 672.161 297.873 673.864 298.938 675.653L369.022 577.541C366.31 577.452 363.717 577.541 361.046 578.266L361.039 578.27Z" fill="#A84600" fill-opacity="0.1"/>
<path d="M335.369 555.309C335.079 555.193 334.664 555.034 334.579 554.801C333.249 551.046 329.672 551.655 326.866 550.814C325.444 550.387 323.839 550.453 322.498 549.871C322.169 549.727 321.843 549.603 321.518 549.495L299.457 580.377C299.74 580.058 300.027 579.713 300.318 579.333C300.864 578.619 301.709 577.615 302.29 578.46C303.639 580.431 305.364 581.416 307.612 581.82C308.003 581.889 308.069 582.467 307.941 582.929C307.623 584.073 303.065 587.953 301.957 587.937C299.426 587.898 296.919 587.782 294.481 587.344L241.364 661.703C241.822 663.274 241 664.644 240.237 666.052C238.787 668.724 237.628 671.358 238.4 674.582C238.814 676.312 239.357 676.727 240.969 676.052C243.779 674.873 246.67 674.431 249.728 675.106C254.131 676.075 258.51 678.256 263.13 675.307C263.03 673.845 260.452 671.661 263.774 670.295C266.638 669.116 269.719 668.259 270.014 664.318C270.048 663.829 271.188 663.484 271.684 662.952C273.071 661.474 274.536 660.047 275.936 658.573L344.411 562.711C341.989 559.542 339.195 556.818 335.361 555.313L335.369 555.309Z" fill="#A84600" fill-opacity="0.1"/>
<path opacity="0.5" d="M503.459 230.414C503.226 230.259 502.773 230.127 502.594 230.248C500.443 231.683 499.122 230.434 497.63 228.995C496.684 228.083 495.316 228.432 494.49 229.382C493.572 230.438 494.742 231.078 495.327 231.764C496.3 232.901 497.707 233.203 499.056 233.456C502.036 234.01 504.579 235.205 506.885 236.741L511.121 230.81C508.904 232.067 506.458 232.42 503.459 230.422V230.414Z" fill="#A84600" fill-opacity="0.25"/>
<path opacity="0.5" d="M673.364 334.174C669.333 331.963 668.891 331.536 670.182 327.095C671.856 321.35 670.069 316.501 667.318 311.745L593.784 414.686C594.032 414.752 594.284 414.818 594.536 414.899C596.912 415.679 598.985 415.299 600.028 412.607C600.443 411.536 601.26 410.943 602.404 410.691C606.675 409.756 610.895 408.604 615.364 409.461C616.562 409.69 617.356 409.973 617.709 411.168C618.658 414.403 620.689 416.893 622.817 419.314L680.708 338.274C680.499 338.158 680.289 338.038 680.084 337.914C677.89 336.595 675.615 335.404 673.368 334.174H673.364Z" fill="#A84600" fill-opacity="0.25"/>
<path opacity="0.5" d="M573.565 269.73C567.112 271.289 563.109 269.291 561.357 263.019L515.597 327.079C516.422 328.371 517.155 329.725 517.806 331.137C518.333 332.277 519.174 334.085 520.402 333.553C523.774 332.091 528.235 333.208 530.58 329.166C531.351 327.839 532.805 326.874 534.045 325.865C538.111 322.552 539.645 322.634 543.637 326.121C544.471 326.846 545.013 327.723 545.501 328.689C545.672 329.03 545.85 329.383 546.04 329.732L585.208 274.901C583.305 274.094 581.53 272.81 579.817 271.351C577.922 269.734 575.623 269.237 573.565 269.734V269.73Z" fill="#A84600" fill-opacity="0.25"/>
<path opacity="0.5" d="M742.371 411.497C744.197 410.725 744.604 409.849 743.418 408.138C742.728 407.145 742.061 406.132 741.403 405.112L736.349 412.188C738.391 412.355 740.387 412.335 742.371 411.497Z" fill="#A84600" fill-opacity="0.25"/>
<path opacity="0.5" d="M625.906 422.914C629.352 427.286 632.995 431.044 639.56 430.144C642.851 429.695 646.346 430.684 649.652 429.376C650.133 429.186 650.625 429.051 651.11 428.981L710.784 345.447C709.95 345.168 709.129 344.857 708.342 344.485C705.679 343.22 701.509 345.35 700.207 340.939C700.133 340.691 699.013 340.679 698.381 340.687C696.885 340.707 695.378 340.699 693.901 340.893C689.971 341.416 686.301 340.854 682.821 339.329L624.402 421.11C624.918 421.703 625.429 422.301 625.914 422.914H625.906Z" fill="#A84600" fill-opacity="0.25"/>
<path opacity="0.5" d="M654.45 430.56C655.617 433.139 657.117 432.98 659.295 432.29C660.907 431.782 662.76 431.58 664.345 432.27C666.891 433.376 670.325 433.934 670.434 437.53C670.511 440.064 671.519 442.837 669.558 445.238C668.829 446.131 669.752 446.631 670.422 446.852C671.255 447.128 672.092 447.418 672.93 447.698L737.564 357.216C737.08 356.634 736.704 355.944 736.41 355.098C734.673 350.075 731.611 345.587 730.476 340.299C730.278 339.376 729.495 338.581 728.705 337.27C727.119 340.66 726.123 343.705 723.736 346.021C721.903 347.794 720.182 348.399 717.748 347.526C716.24 346.987 714.679 346.584 713.128 346.153L653.605 429.481C653.947 429.737 654.237 430.094 654.447 430.56H654.45Z" fill="#A84600" fill-opacity="0.25"/>
<path opacity="0.5" d="M525.147 267.732C524.368 268.461 523.469 269.058 522.693 269.792C521.775 270.661 521.771 271.7 523.1 271.91C525.833 272.336 527.829 274.548 530.468 274.912C534.7 275.498 536.754 278.582 538.975 281.604C540.088 283.117 539.498 284.106 537.983 284.459C536.154 284.885 534.708 285.886 533.135 286.802C527.968 289.82 521.821 289.944 516.392 292.248C515.977 292.423 515.341 292.167 514.834 292.023C511.357 291.065 508.047 291.915 504.78 292.95L501.896 296.988C501.947 297.225 502.009 297.473 502.098 297.733C502.629 299.312 504.082 301.178 503.125 302.586C501.567 304.883 502.676 306.357 503.799 308.048C504.695 309.398 505.381 310.845 505.757 312.416C506.664 316.206 506.838 320.403 511.524 321.935C512.047 322.106 512.376 322.866 512.799 323.347C513.283 323.902 513.744 324.472 514.186 325.054L560.474 260.257C559.83 258.558 559.047 256.921 558.33 255.253C557.28 252.797 556.032 250.419 555.11 247.917C554.269 245.632 554.199 243.437 557.288 242.657C561.981 241.478 564.958 238.157 568.027 234.654C570.093 232.3 569.713 230.95 567.899 229.029C564.574 225.515 561.288 221.958 558.075 218.342L526.554 262.468C527.554 264.198 526.79 266.196 525.147 267.728V267.732Z" fill="#A84600" fill-opacity="0.25"/>
<path opacity="0.5" d="M665.582 307.567C666.194 306.791 667.008 306.795 667.857 307.001L674.407 297.83C673.593 296.57 673.492 295.111 674.364 293.179C675.542 290.565 675.472 287.791 672.116 286.561C669.69 285.673 669.368 284.245 670.403 282.096C671.55 279.707 670.705 278.275 668.202 277.531C666.368 276.987 664.489 276.402 662.83 275.475C661.628 274.804 660.423 274.257 659.218 273.826L563.112 408.363C563.267 408.371 563.422 408.375 563.585 408.375C566.147 408.375 566.713 409.697 566.019 411.955C565.852 412.498 565.244 413.057 566.023 413.98C566.976 411.556 568.531 411.152 571.003 411.68C572.763 412.056 574.402 412.428 576.096 413.123C579.561 414.546 583.254 415.656 587.018 414.756C588.459 414.411 589.835 414.248 591.203 414.302L665.802 309.871C665.213 309.216 664.834 308.51 665.578 307.567H665.582Z" fill="#A84600" fill-opacity="0.25"/>
<path opacity="0.5" d="M681.91 449.42C688.309 449.168 694.7 448.636 701.095 448.256C704.017 448.082 706.661 447.038 707.141 444.009C707.862 439.439 709.04 435.653 712.505 431.999C714.52 429.869 716.09 428.694 718.695 428.356C720.233 428.158 721.803 427.961 722.942 426.952L724.26 425.105C725.659 422.739 726.977 420.315 727.721 417.646C728.934 413.313 730.039 411.99 733.616 412.006L740.057 402.986C739.557 402.187 739.061 401.384 738.569 400.581C736.732 397.587 736.1 394.076 737.321 391.004C739.716 384.972 741.236 378.563 744.852 373.012C747.673 368.683 745.034 360.758 740.22 358.989C739.926 358.88 739.658 358.76 739.402 358.632L675.26 448.423C677.422 449.055 679.624 449.502 681.91 449.412V449.42Z" fill="#A84600" fill-opacity="0.25"/>
<path d="M551.319 371.282C551.28 371.426 551.265 371.554 551.272 371.67L552.214 370.351C551.803 370.483 551.47 370.739 551.319 371.282Z" fill="#A84600" fill-opacity="0.25"/>
<path opacity="0.5" d="M518.465 246.765C519.348 247.502 519.685 248.995 520.081 250.202C521.29 253.903 522.604 257.475 525.038 260.586L556.473 216.577C555.458 215.611 554.532 215.569 553.307 216.469C551.303 217.947 549.214 219.211 546.567 218.998C545.734 218.932 544.858 219.332 544.912 220.146C545.091 223.013 542.839 223.742 541.099 225.108C539.184 226.609 537.789 226.357 535.638 225.395C534.053 224.689 531.75 226.892 529.731 225.263C528.247 224.064 527.735 222.256 526.813 220.709C526.414 220.038 526.119 218.567 525.166 219.343C523.945 220.336 522.255 220.6 520.806 221.252L508.775 238.095C512.178 240.737 515.159 243.999 518.468 246.765H518.465Z" fill="#A84600" fill-opacity="0.25"/>
<path opacity="0.5" d="M642.006 274.815C637.2 276.875 635.86 279.047 636.456 284.036C636.673 285.832 637.073 287.616 637.15 289.412C637.309 293.07 636.728 293.555 633.418 291.852C630.023 290.107 626.728 289.917 623.233 291.177C622.225 291.542 621.097 292.05 620.128 291.465C617.225 289.715 614.326 290.235 611.54 291.302L559.857 363.652C559.76 363.978 559.691 364.307 559.667 364.641C559.462 367.667 557.807 369.059 555.509 369.738L552.99 373.264C554.513 374.723 554.885 375.852 552.23 376.531C551.459 376.728 550.788 377.12 550.61 377.919C549.815 381.504 548.955 385.259 551.393 388.44C555.602 393.925 558.822 399.848 560.625 406.528C560.714 406.854 560.834 407.122 560.977 407.347L656.858 273.124C651.959 271.972 647.018 272.666 642.006 274.811V274.815Z" fill="#A84600" fill-opacity="0.25"/>
<path opacity="0.5" d="M672.283 308.114C673.631 308.323 674.802 307.776 674.957 306.438C675.321 303.288 677.147 303.315 679.941 304.526C679.092 301.977 677.709 300.79 676.275 299.719C676.193 299.657 676.12 299.599 676.042 299.537L670.244 307.652C670.922 307.811 671.593 308.005 672.279 308.114H672.283Z" fill="#A84600" fill-opacity="0.25"/>
<path opacity="0.5" d="M605.989 289.059C605.214 282.193 599.408 279.455 595.331 275.288C594.854 274.8 594.176 274.676 593.54 274.935C591.378 275.816 589.397 275.963 587.553 275.614L547.404 331.816C547.955 332.463 548.59 332.983 549.365 333.255C553.299 334.64 554.307 337.894 554.838 341.211C555.284 344.004 556.291 346.289 558.055 348.364C560.473 351.207 561.489 354.307 561.306 357.62L608.202 291.969C606.954 291.732 606.175 290.727 605.985 289.059H605.989Z" fill="#A84600" fill-opacity="0.25"/>
<path opacity="0.5" d="M564.423 262.774C565.721 266.638 569.562 267.825 573.387 266.25C574.643 265.734 575.701 265.404 576.98 266.269C578.833 267.518 580.925 268.426 582.704 269.757C584.196 270.874 585.751 271.568 587.34 271.902L685.011 135.173C682.84 132.947 680.674 130.712 678.519 128.474C675.682 125.526 672.395 124.796 668.609 125.572C664.915 126.329 661.559 127.946 658.249 129.719C657.179 130.289 656.408 130.654 655.827 130.763L563.415 260.133C563.779 260.998 564.124 261.874 564.423 262.77V262.774Z" fill="#A84600" fill-opacity="0.25"/>
<path opacity="0.5" d="M732.489 278.004C733.357 278.399 734.303 278.628 735.221 278.915C739.008 280.106 740.21 279.319 740.221 275.416C740.233 269.776 740.357 264.144 740.547 258.511L727.648 276.568C729.272 276.77 730.881 277.263 732.493 278.004H732.489Z" fill="#A84600" fill-opacity="0.25"/>
<path opacity="0.5" d="M616.132 285.246C617.992 282.83 618.837 283.617 619.81 285.879C620.732 288.031 622.507 288.222 623.368 286.107C624.825 282.535 626.022 283.873 627.689 285.84C628.941 287.322 630.91 287.399 632.429 286.701C633.863 286.041 632.921 284.428 632.716 283.225C632.351 281.096 632.01 279.09 633.754 277.22C639.056 271.553 645.839 269.474 653.257 268.795C654.691 268.663 656.051 268.958 657.272 269.637C657.768 269.912 658.268 270.176 658.768 270.439L724.248 178.775C720.973 173.829 717.601 168.961 713.539 164.647C711.357 162.327 709.156 160.023 706.951 157.727L615.24 286.115C615.566 285.875 615.864 285.588 616.128 285.242L616.132 285.246Z" fill="#A84600" fill-opacity="0.25"/>
<path opacity="0.5" d="M594.203 271.258C596.815 270.28 598.07 270.804 598.563 273.407C598.838 274.866 599.435 276.208 600.78 276.743C605.008 278.415 606.83 281.864 608.008 285.902C608.302 286.914 608.694 288.237 610.077 287.865C610.496 287.752 610.926 287.655 611.356 287.558L705.315 156.024C699.129 149.608 692.881 143.253 686.661 136.872L590.044 272.131C591.42 272.076 592.815 271.778 594.206 271.258H594.203Z" fill="#A84600" fill-opacity="0.25"/>
<path opacity="0.5" d="M731.91 204.804C730.12 204.424 729.721 203.539 730.593 201.817C731.941 199.16 733.147 196.425 734.251 193.655C734.685 192.569 735.503 190.901 733.678 190.397C731.193 189.714 730.197 187.713 728.973 185.905C727.841 184.233 726.733 182.545 725.624 180.858L660.869 271.506C664.446 273.256 668.132 274.753 671.888 276.099C672.861 276.448 674.147 276.716 674.256 277.992C674.566 281.689 676.178 279.796 677.271 278.64C680.817 274.885 685.654 274.268 690.1 274.59C690.39 274.61 690.677 274.621 690.968 274.637L738.177 208.547C736.523 206.79 734.581 205.37 731.907 204.8L731.91 204.804Z" fill="#A84600" fill-opacity="0.25"/>
<path opacity="0.5" d="M627.146 99.9504C620.868 100.59 616.453 104.846 612.45 108.857C609.52 111.79 607.458 116.014 606.373 120.359C605.074 125.561 603.001 130.464 600.765 135.324C599.823 137.369 598.769 137.803 596.776 137.058C595.99 136.764 594.653 135.367 594.242 137.218C593.974 138.428 595.455 138.381 596.381 138.517C596.804 138.579 597.234 138.606 597.652 138.699C603.489 139.999 604.687 141.221 604.377 147.14C604.334 147.959 604.33 148.758 604.365 149.538L636.44 104.633C633.855 101.599 630.243 99.6323 627.146 99.9465V99.9504Z" fill="#A84600" fill-opacity="0.25"/>
<path opacity="0.5" d="M558.329 213.982L561.48 209.572C558.659 211.759 557.616 212.458 558.329 213.982Z" fill="#A84600" fill-opacity="0.25"/>
<path opacity="0.5" d="M608.182 159.961C611.011 163.565 613.337 167.564 615.914 171.37C616.465 172.184 617.201 173.045 616.771 173.992C614.17 179.683 612.523 185.998 607.175 189.982C605.024 191.584 602.842 193.12 601.028 195.098C598.974 197.341 597.202 197.612 595.055 195.021C592.722 192.205 590.087 189.563 585.901 190.273C583.207 189.668 581.343 190.971 579.692 192.814C578.254 194.416 577.126 196.22 576.057 198.082C574.937 200.033 573.708 201.968 571.553 202.958C570.123 203.613 568.763 204.385 567.445 205.219L559.736 216.011C560.252 216.647 560.887 217.396 561.647 218.307C564.926 222.237 568.798 225.655 571.859 229.805C573.177 231.594 573.491 233.06 571.867 234.895C570.173 236.811 568.689 238.937 567.294 241.086C565.829 243.34 563.802 244.387 561.213 244.717C557.279 245.217 557.012 245.756 558.407 249.345C559.519 252.211 560.976 254.911 562.302 257.685L654.098 129.184C653.981 128.776 653.873 128.299 653.756 127.721C652.493 121.332 647.082 118.303 642.924 114.427C641.424 113.027 640.006 112.03 639.401 109.982C639.052 108.807 638.529 107.674 637.882 106.619L604.799 152.928C605.353 155.415 606.43 157.734 608.178 159.957L608.182 159.961Z" fill="#A84600" fill-opacity="0.25"/>
<path opacity="0.5" d="M704.339 274.291C707.576 274.117 711.176 273.318 713.812 275.94C716.056 278.171 718.466 278.512 721.11 277.449C722.365 276.945 723.598 276.646 724.815 276.53L740.697 254.294C741.089 244.112 741.655 233.94 742.112 223.762C742.17 222.466 742.124 221.112 743.073 220.123C744.747 218.381 745.333 216.81 742.957 215.158C742.499 214.839 742.434 214.002 742.062 213.501C741.286 212.462 740.531 211.395 739.736 210.378L693.767 274.73C697.313 274.749 700.805 274.485 704.343 274.291H704.339Z" fill="#A84600" fill-opacity="0.25"/>
<path opacity="0.5" d="M574.74 48.0589C576.096 50.2196 577.693 50.0256 579.829 49.9985C585.611 49.9325 589.026 51.7053 587.32 57.7645C586.851 59.4248 587.595 60.6467 588.564 61.8609C589.762 63.3622 589.746 64.9953 588.177 66.0698C585.549 67.8697 585.08 71.4812 582.111 72.9708C581.48 73.2889 581.092 74.2393 581.747 74.9298C583.766 77.0556 582.018 77.9711 580.592 79.193C577.557 81.792 575.751 86.1251 576.623 89.0771C576.681 89.2672 576.72 89.4495 576.767 89.6318L621.791 26.6032C618.632 27.0455 615.477 27.5265 612.349 28.1821C605.268 29.66 598.281 31.2 592.971 36.5378C591.13 38.3843 590.153 38.1476 588.44 36.3554C587.281 35.1452 586.08 34.0241 584.809 33.1164L574.426 47.6516C574.542 47.7757 574.651 47.9076 574.744 48.0589H574.74Z" fill="#A84600" fill-opacity="0.25"/>
<path opacity="0.5" d="M573.302 99.8806C569.438 104.303 566.136 108.985 566.822 115.638C566.298 118 566.953 120.266 568.624 122.504C571.418 126.247 575.305 126.643 579.239 126.026C581.596 125.658 583.627 125.964 585.328 126.918L665.954 14.0503C662.532 14.8572 659.171 15.9162 655.858 17.2312C650.021 19.5432 644.455 22.5069 638.235 23.9305C633.852 24.9352 629.41 25.5559 624.969 26.161L577.042 93.2511C576.697 95.8346 575.15 97.7626 573.306 99.8767L573.302 99.8806Z" fill="#A84600" fill-opacity="0.25"/>
<path opacity="0.5" d="M706.781 153.968L757.281 83.2738C753.952 82.3428 750.627 81.3769 747.185 80.8843C741.554 80.0774 739.329 76.815 740.201 71.0933C740.38 69.9295 740.48 68.7542 740.701 67.5982C741.085 65.5655 740.507 64.7237 738.232 64.7741C738.209 64.7741 738.186 64.7741 738.167 64.7741L688.205 134.715C694.387 141.143 700.565 147.579 706.789 153.968H706.781Z" fill="#A84600" fill-opacity="0.25"/>
<path opacity="0.5" d="M574.027 31.9565C572.984 32.4298 571.74 32.4453 570.593 32.6936C567.364 33.3918 565.151 36.1538 565.066 39.5674C564.969 43.5824 565.783 44.7073 569.876 45.8866C570.674 46.1155 571.558 46.2706 572.376 46.515L582.805 31.9139C580.27 30.6842 577.414 30.4204 574.027 31.9565Z" fill="#A84600" fill-opacity="0.25"/>
<path opacity="0.5" d="M645.843 110.734C646.366 110.828 646.846 111.809 647.122 112.468C647.602 113.613 648.385 114.47 649.366 115.118C652.206 116.999 654.202 119.486 655.644 122.609C656.206 123.827 656.605 124.63 657.016 125.095L708.997 52.326C708.791 51.5773 708.419 50.8907 707.466 50.7782C704.714 50.4523 704.288 48.346 703.703 46.2435C702.121 40.5489 703.04 34.2142 699.277 29.0627C698.951 28.6204 699.106 27.8136 699.071 27.1735C698.939 24.9003 699.226 22.7047 700.133 20.5828C700.35 20.0708 700.482 19.5548 700.404 19.0893L639.374 104.524C640.684 107.204 642.195 110.083 645.839 110.731L645.843 110.734Z" fill="#A84600" fill-opacity="0.25"/>
<path opacity="0.5" d="M661.113 124.249C667.364 120.77 675.86 121.937 680.778 127.019C682.708 129.013 684.631 131.015 686.557 133.012L735.297 64.7819C732.724 64.7199 730.162 64.3902 727.879 63.1837C723.399 60.8136 718.663 59.2503 713.853 57.8693C712.032 57.3456 710.679 56.5271 709.873 55.1112L660.074 124.824C660.388 124.657 660.729 124.467 661.113 124.253V124.249Z" fill="#A84600" fill-opacity="0.25"/>
<path opacity="0.5" d="M588.026 129.323C590.277 132.295 593.785 131.798 596.56 133.214C597.288 133.587 598.013 132.912 598.253 132.124C599.16 129.164 600.788 126.511 601.649 123.501C604.106 114.924 606.931 106.786 615.082 101.281C618.213 99.1668 621.058 97.3165 624.631 97.107C629.891 96.8006 634.952 96.9247 638.169 102.204L698.638 17.5532C697.866 17.2041 697.111 16.9791 696.165 17.817C693.223 20.4238 689.979 19.9079 687.821 16.5795C687.297 15.7727 686.79 15.249 685.797 15.3848C684.22 15.6059 682.918 14.8843 681.55 14.2482C678.581 12.8633 675.469 12.3862 672.186 12.8633C671.217 13.0029 670.26 13.1698 669.306 13.3482L587.169 128.334C587.467 128.637 587.75 128.963 588.022 129.32L588.026 129.323Z" fill="#A84600" fill-opacity="0.25"/>
<path opacity="0.5" d="M727.644 179.57C730.09 183.476 732.694 187.34 737.585 188.585C739.07 188.962 739.054 189.683 738.496 190.924C737.272 193.648 736.186 196.437 735.074 199.214C734.671 200.219 734.206 201.611 735.469 202.023C737.644 202.729 738.841 204.292 740.062 205.917L764.944 171.083C765.258 169.787 765.518 168.468 765.715 167.114C765.956 165.438 766.452 163.77 767.037 162.176C768.18 159.045 767.955 155.927 767.587 152.688C766.727 145.162 764.777 137.749 765.208 130.088C765.293 128.606 765.397 127.112 764.948 125.817L727.125 178.767C727.296 179.039 727.474 179.302 727.644 179.574V179.57Z" fill="#A84600" fill-opacity="0.25"/>
<path opacity="0.5" d="M746.678 206.705C747.415 205.526 748.194 204.37 748.857 203.148C753.321 194.908 758.895 187.189 762.483 178.534L741.562 207.818C743.903 210.611 744.465 210.25 746.678 206.705Z" fill="#A84600" fill-opacity="0.25"/>
<path opacity="0.5" d="M711.324 158.623C716.773 164.162 721.517 170.206 725.769 176.657L763.514 123.819C763.227 123.594 762.898 123.388 762.514 123.198C761.917 122.903 761.727 121.751 761.386 120.975C759.809 117.364 762.417 114.043 762.281 110.816C762.08 106.006 766.952 103.011 765.719 98.2397C765.7 98.166 765.804 98.0457 765.866 97.9604C768.316 94.6088 767.436 91.0671 766.502 87.5022C766.138 86.1134 765.332 85.1863 763.96 84.9225C762.518 84.6471 761.092 84.3018 759.673 83.9256L708.433 155.655C709.398 156.64 710.355 157.633 711.324 158.619V158.623Z" fill="#A84600" fill-opacity="0.25"/>
<path d="M568.224 638.96C565.608 631.966 559.694 627.656 554.694 622.675C553.772 621.756 553.109 620.937 552.706 620.006L545.203 630.507C545.474 631.481 545.68 632.478 545.784 633.502C546.086 636.465 545.703 637.447 542.99 638.234C541.591 638.638 540.599 638.665 539.8 638.067L513.294 675.175C514.221 677.08 515.283 678.93 516.488 680.742C517.732 682.612 518.941 684.501 520.139 686.402C523.949 692.442 523.894 692.391 518.705 697.139C515.22 700.324 511.872 703.656 507.109 704.87C500.629 706.519 494.272 708.571 487.936 710.681L460.337 749.314C463.496 750.617 466.484 752.208 468.646 755.183C468.976 755.637 469.728 756.021 470.29 756.025C473.805 756.052 477.343 756.622 480.835 755.808C483.839 755.106 486.199 755.09 488.025 755.819L569.593 641.632C569.027 640.822 568.589 639.922 568.228 638.956L568.224 638.96Z" fill="#A84600" fill-opacity="0.1"/>
<path d="M513.07 815.267C511.081 813.937 510.248 812.094 509.911 809.941C509.508 807.393 508.996 804.914 507.741 802.614C506.686 800.682 507.485 799.285 509.551 799.297C513.124 799.316 515.244 797.299 517.139 794.712C518.852 792.376 519.887 792.435 521.131 795.08C522.22 797.396 523.115 799.801 524.088 802.175C524.232 802.524 524.367 802.897 524.546 803.227L529.972 795.627C530.15 795.224 530.336 794.824 530.541 794.432C531.894 791.872 533.564 789.296 535.762 787.52L553.45 762.755C552.54 762.135 551.722 761.169 551.024 759.861C549.288 756.607 549.28 753.057 549.067 749.566C548.97 747.987 547.66 746.129 548.738 744.927C550.641 742.801 550.238 741.04 549.04 738.902C548.435 737.82 548.908 736.734 550.16 736.354C552.702 735.574 553.978 733.398 555.687 731.652C558.814 728.456 560.198 724.169 562.771 720.662C565.093 717.501 566.849 714.169 567.659 710.332C567.957 708.924 568.446 707.469 569.852 706.977C573.356 705.751 575.565 702.966 578.162 700.599C579.96 698.959 580.154 697.318 579.216 695.169C578.201 692.841 576.592 690.7 576.604 688.004C576.604 686.999 576.627 685.998 576.658 684.997L497.489 795.821C497.424 796.17 497.381 796.516 497.373 796.869C497.327 799.32 496.342 800.135 494.277 800.321L490.343 805.829C490.459 806.438 490.815 807.024 491.626 807.567C492.579 808.204 493.529 809.251 492.874 810.566C490.389 815.578 489.858 821.552 485.436 825.621C484.611 826.381 483.529 827.014 483.231 828.255C483.874 829.05 484.831 828.732 485.607 829.004C489.579 830.385 490.184 832.378 487.92 835.812C485.525 839.446 482.812 842.949 482.118 847.472C481.863 849.14 480.909 850.296 478.987 849.703C477.541 849.257 477.177 850.013 476.367 851.08C474.142 854.02 473.704 858.749 468.755 859.145C467.891 859.214 467.713 860.114 467.395 860.786C464.124 867.617 465.864 872.881 472.437 876.159L514.752 816.924C514.31 816.268 513.732 815.706 513.066 815.264L513.07 815.267Z" fill="#A84600" fill-opacity="0.1"/>
<path d="M515.434 569.348C515.124 568.021 513.888 567.048 512.674 566.322C512.078 565.965 511.465 565.287 510.651 565.865C509.76 566.501 510.047 567.342 510.299 568.18C510.903 570.19 511.651 572.176 512.178 574.197L515.488 569.561C515.469 569.488 515.449 569.422 515.434 569.348Z" fill="#A84600" fill-opacity="0.1"/>
<path d="M552.908 774.16C552.99 774.11 553.028 773.985 553.075 773.889C554.11 771.689 555.974 770.583 558.191 769.858C561.896 768.648 565.574 767.348 569.275 766.084C568.202 762.996 562 764.668 564.105 758.682C562.314 760.183 561.295 761.122 560.191 761.945C558.605 763.128 557.102 763.651 555.73 763.562L540.266 785.208C545.688 782.76 548.106 777.116 552.904 774.156L552.908 774.16Z" fill="#A84600" fill-opacity="0.1"/>
<path d="M578.658 668.655C579.181 666.389 580.383 663.767 579.205 661.808C577.736 659.356 578.015 656.955 577.798 654.453C577.426 650.132 576.007 646.295 572.046 643.941C571.748 643.762 571.477 643.568 571.217 643.363L489.986 757.08C491.374 758.407 492.281 760.49 492.812 763.403C493.071 764.838 493.529 765.265 494.92 764.501C496.501 763.632 498.106 762.592 499.831 762.228C504.691 761.2 504.536 766.693 507.388 768.415C508.76 769.245 508.524 770.731 507.764 772.135C506.435 774.594 504.47 776.228 501.985 777.461C499.203 778.842 499.172 779.56 501.792 781.17C502.757 781.763 503.33 782.446 503.613 783.268L576.883 680.696C577.182 676.653 577.744 672.639 578.658 668.655Z" fill="#A84600" fill-opacity="0.1"/>
<path d="M515.024 821.835C515.834 821.42 515.71 820.59 515.687 819.841C515.687 819.775 515.679 819.709 515.675 819.643L513.602 822.545C514.036 822.277 514.574 822.06 515.024 821.835Z" fill="#A84600" fill-opacity="0.25"/>
<path d="M534.366 895.488C536.284 897.199 537.912 895.655 539.23 894.107C540.629 892.463 539.532 891.369 538.346 890.341C537.773 889.844 537.191 889.356 536.61 888.871L532.703 894.34C533.257 894.62 533.812 894.996 534.366 895.488Z" fill="#A84600" fill-opacity="0.1"/>
<path d="M497.261 788.781C497.78 789.498 498.063 790.185 498.195 790.848L499.474 789.056C498.784 789.025 498.04 788.92 497.261 788.781Z" fill="#A84600" fill-opacity="0.25"/>
<path d="M554.617 603.958C550.505 602.856 546.49 601.394 542.443 600.052C540.641 599.454 539.657 598.256 539.564 596.266C539.455 593.961 539.351 591.661 539.393 589.361L531.863 599.904C532.471 601.064 532.142 602.519 531.607 603.621C530.584 605.735 531.576 606.592 532.793 607.624C534.095 608.729 535.576 609.633 536.831 610.781C538.521 612.329 541.145 613.423 541.079 616.104C540.978 620.328 542.858 623.971 544.292 627.764L552.295 616.561C552.675 612.954 554.857 610.075 556.063 606.813C556.702 605.075 556.547 604.466 554.617 603.95V603.958Z" fill="#A84600" fill-opacity="0.1"/>
<path d="M532.266 885.116C530.429 883.393 531.014 880.922 533.514 878.172C535.215 876.298 536.122 877.287 537.227 878.796C538.265 880.216 539.145 879.623 539.878 878.327C541.009 876.322 540.315 874.421 539.754 872.454C538.525 868.156 538.893 867.442 542.777 865.421C544.381 864.587 545.896 863.579 547.462 862.663C548.183 862.24 549.195 861.491 549.71 862.434C550.547 863.974 551.039 864.374 551.365 864.219L551.737 863.695C551.966 863.117 552.109 862.221 552.38 861.709C553.477 859.653 553.52 857.767 552.191 855.712C551.094 854.02 551.443 851.991 551.737 850.071C552.02 848.217 552.307 846.367 552.663 844.055C549.958 845.568 548.059 844.753 546.315 843.073C545.869 842.643 545.249 842.247 544.656 842.134C541.315 841.514 540.145 839.353 538.726 836.642L497.846 893.867C497.884 893.906 497.923 893.948 497.962 893.987C499.38 895.531 500.656 895.357 502.059 894.01C502.962 893.145 504.024 891.481 505.171 892.203C508.465 894.27 510.806 892.187 513.36 890.857C515.186 889.906 516.069 890.306 516.399 892.42C517.061 896.668 517.542 896.916 521.735 895.748C522.968 895.403 524.216 895.093 525.41 894.647C527.096 894.022 528.716 893.568 530.308 893.681L534.816 887.369C533.948 886.636 533.087 885.891 532.258 885.116H532.266Z" fill="#A84600" fill-opacity="0.1"/>
<path d="M532.886 634.894C530.529 636.423 527.615 637.198 524.855 637.967C520.747 639.111 516.678 639.34 512.864 636.686C511.476 635.721 509.67 635.585 507.953 635.387C507.442 635.329 507.004 635.286 506.612 635.259L504.407 638.347C504.438 638.552 504.473 638.77 504.512 639.002C505.795 646.784 507.705 654.449 509.105 662.18C509.779 665.908 510.794 669.399 512.186 672.724L538.389 636.042C537.196 633.874 535.63 633.114 532.89 634.894H532.886Z" fill="#A84600" fill-opacity="0.1"/>
<path d="M539.848 584.097C540.034 582.987 540.7 581.432 538.797 580.889C535.553 579.969 532.612 578.433 529.03 578.165C524.046 577.797 518.934 576.982 516.466 572.195L512.838 577.273C513.598 580.555 515.024 581.92 518.721 582.502C520.198 582.735 521.686 582.894 523.155 583.162C525.577 583.604 527.252 584.776 527.527 587.491C527.845 590.629 529.468 593.585 528.86 596.867C528.717 597.631 529.251 598.155 529.844 598.353C529.922 598.38 529.988 598.411 530.058 598.438L539.735 584.888C539.77 584.624 539.801 584.36 539.848 584.097Z" fill="#A84600" fill-opacity="0.1"/>
<path d="M472.658 715.713C471.193 716.171 469.67 716.694 468.867 717.951C465.178 723.743 459.325 728.452 460.453 736.625C460.926 740.035 460.248 743.771 455.942 745.132C455.372 745.315 454.841 745.831 454.895 746.595C454.969 747.611 455.837 747.557 456.515 747.821C457.043 748.026 457.573 748.228 458.104 748.43L484.176 711.931C480.347 713.215 476.514 714.499 472.658 715.705V715.713Z" fill="#A84600" fill-opacity="0.1"/>
<path d="M539.258 827.219C540.684 825.908 540.18 824.496 537.812 824.477C535.952 824.461 534.231 824.969 532.491 825.478C530.549 826.044 528.685 826.23 527.321 824.271C526.406 822.956 525.421 823.371 524.298 824.042C522.557 825.082 520.751 826.013 518.957 826.955C516.224 828.391 514.616 826.312 513.294 824.69C512.961 824.283 512.822 823.941 512.81 823.65L474.6 877.14C475.751 877.683 476.782 878.401 476.646 879.883C476.274 884.026 477.844 888.025 477.208 892.25C478.161 891.803 479.154 891.45 479.715 892.23C481.425 894.596 482.401 893.018 483.572 891.714C485.285 889.806 487.017 887.889 489.451 886.85C490.881 886.241 492.195 886.109 492.827 887.944C493.463 889.786 494.792 891.024 496.141 892.246L537.533 834.299C536.208 831.292 536.684 829.578 539.246 827.223L539.258 827.219Z" fill="#A84600" fill-opacity="0.1"/>
<path opacity="0.5" d="M421.142 438.702C420.335 438.76 419.46 438.411 418.669 438.105C415.406 436.844 414.53 432.115 417.239 430.102C419.456 428.449 419.289 427.095 417.057 425.707C416.061 425.086 415.092 424.419 414.127 423.752C413.452 423.282 412.879 422.79 412.41 422.258L361.948 492.898C362.111 493.196 362.22 493.507 362.262 493.833C362.758 497.712 364.952 499.31 368.312 500.229C369.409 500.528 370.436 501.215 371.386 501.878C373.909 503.635 375.66 503.239 376.978 500.509C378.986 496.35 381.838 495.791 385.152 499.128C386.098 500.078 387.109 500.827 388.206 501.405L429.753 443.241C427.533 440.735 425.196 438.407 421.134 438.71L421.142 438.702Z" fill="#A84600" fill-opacity="0.25"/>
<path opacity="0.5" d="M447.361 487.327C446.327 486.497 445.594 485.283 447.191 484.158C449.245 482.715 447.799 481.695 446.633 481.07C444.768 480.073 443.939 478.673 443.687 477.009L430.394 495.621C430.994 495.761 431.587 495.908 432.176 496.051C436.308 497.068 440.184 500.063 443.567 502.906C446.536 505.4 449.958 506.238 453.349 507.344C453.652 507.441 453.938 507.511 454.206 507.549L457.151 503.43C457.004 500.097 456.039 496.948 453.71 494.527C451.485 492.215 449.9 489.368 447.357 487.331L447.361 487.327Z" fill="#A84600" fill-opacity="0.25"/>
<path opacity="0.5" d="M411.472 416.641C412.767 412.611 408.527 405.621 404.326 404.938C400.035 404.243 395.892 403.037 391.714 401.959L380.471 417.7C378.936 421.971 377.436 426.258 375.459 430.366C374.06 433.271 372.568 434.951 369.239 434.423C369.022 434.388 368.801 434.377 368.561 434.369L320.665 501.416C321.103 501.327 321.591 501.412 322.138 501.762C325.378 503.841 326.831 501.847 328.525 499.958C330.443 497.824 333.513 496.831 335.947 498.488C337.978 499.869 338.617 498.992 340.02 497.731C343.625 494.492 346.772 490.465 352.093 489.752C354.973 489.364 358.224 489.984 360.263 491.245L411.201 419.938C410.992 418.984 411.062 417.898 411.468 416.637L411.472 416.641Z" fill="#A84600" fill-opacity="0.25"/>
<path opacity="0.5" d="M444.323 467.889C444.389 466.791 445.052 465.282 443.835 464.669C442.591 464.044 441.8 465.522 440.932 466.213C436.114 470.042 430.863 470.523 426.003 467.501C423.332 465.841 423.239 464.913 425.6 462.621C426.987 461.271 428.243 459.902 428.933 458.001C430.157 454.622 429.96 450.786 432.27 447.764C432.812 447.05 432.584 446.301 432.018 445.727C431.789 445.498 431.568 445.262 431.347 445.021L390.432 502.297C390.78 502.402 391.133 502.495 391.501 502.576C392.854 502.867 394.47 502.968 395.443 503.783C397.877 505.819 399.245 504.442 400.679 502.658C402.179 500.796 404.229 499.368 406.485 499.903C410.647 500.893 414.004 498.914 416.918 496.959C420.557 494.515 424.301 494.492 427.902 495.113L443.85 472.788C444.032 471.159 444.226 469.53 444.323 467.896V467.889Z" fill="#A84600" fill-opacity="0.25"/>
<path opacity="0.5" d="M386.242 403.646C385.793 404.732 385.335 405.814 384.824 406.873C384.498 407.552 384.188 408.235 383.886 408.922L389.199 401.481C387.87 401.481 386.882 402.098 386.238 403.646H386.242Z" fill="#A84600" fill-opacity="0.25"/>
<path opacity="0.5" d="M304.987 487.529C305.15 490.078 303.169 490.803 300.953 491.047C300.084 491.144 298.418 491.649 299.495 492.673C302.247 495.291 302.425 499.523 305.72 501.781C307.472 502.98 308.7 504.892 308.944 507.146C309.169 509.241 310.409 509.438 312.111 509.151C312.18 509.14 312.246 509.124 312.316 509.109L365.657 434.439C363.797 434.474 361.572 434.295 359.355 433.791C357.84 433.45 356.735 432.639 356.429 431.192C356.115 429.718 357.363 429.311 358.503 428.822C360.347 428.03 361.01 426.525 360.324 424.621C359.716 422.937 358.693 422.32 356.638 422.565C352.302 423.081 347.883 423.275 343.701 421.44C343.426 421.319 343.155 421.184 342.891 421.04L309.359 467.982C309.378 468.017 309.402 468.052 309.421 468.094C309.929 469.223 308.975 470.352 308.231 471.225C307.627 471.931 306.824 472.668 305.968 472.916C305.91 472.932 305.855 472.955 305.797 472.97L297.79 484.177C298.302 484.065 298.833 483.848 299.309 483.789C302.232 483.444 304.821 484.891 304.987 487.521V487.529Z" fill="#A84600" fill-opacity="0.25"/>
<path opacity="0.5" d="M340.043 416.397C340.834 413.394 341.372 411.618 339.035 408.507C337.202 406.067 335.311 403.041 333.733 400.104C332.582 397.963 330.563 398.006 328.982 399.976C328.28 400.849 327.408 401.85 326.377 401.567C322.715 400.57 321.052 403.052 319.452 405.419C318.711 406.513 317.905 407.366 317.025 407.983L301.236 430.086C303.146 431.855 305.301 433.341 307.886 434.349C309.417 434.947 310.696 436.274 311.999 437.375C313.343 438.512 313.56 439.738 311.673 440.537C309.968 441.258 309.123 442.372 309.379 444.257C309.774 447.151 307.987 448.105 305.592 448.198C303.538 448.276 301.596 447.686 299.872 446.456C299.135 445.929 298.441 445.161 297.294 445.704C294.845 446.856 293.721 452.035 295.868 453.505C298.356 455.208 299.344 457.345 299.31 460.227C299.294 461.504 299.507 462.788 299.662 464.06C299.945 466.395 300.984 467.85 303.639 467.52C304.588 467.404 305.565 467.439 306.522 467.516C306.623 467.524 306.731 467.524 306.84 467.52L341.047 419.632C340.194 418.72 339.729 417.615 340.051 416.397H340.043Z" fill="#A84600" fill-opacity="0.25"/>
<path d="M297.151 480.725C296.838 481.427 296.024 482.051 295.923 482.789L301.291 475.275C299.523 476.659 298.159 478.487 297.151 480.725Z" fill="#A84600" fill-opacity="0.25"/>
<path opacity="0.5" d="M310.352 408.829C308.278 408.278 306.306 408.545 304.903 410.923C303.492 413.313 301.147 415.004 298.651 416.308C294.45 418.507 293.822 421.191 296.733 425.005C297.64 426.192 298.574 427.34 299.57 428.414L313.293 409.201C312.383 409.228 311.406 409.104 310.352 408.825V408.829Z" fill="#A84600" fill-opacity="0.25"/>
<path d="M344.989 563.471C344.803 563.215 344.609 562.959 344.419 562.711L275.943 658.573C277.242 657.207 278.478 655.803 279.544 654.275C281.075 652.075 282.33 650.873 284.326 650.845L345.977 564.542C345.64 564.266 345.314 563.913 344.993 563.479L344.989 563.471Z" fill="#A84600" fill-opacity="0.25"/>
<path d="M561.264 262.685C561.046 261.851 560.771 261.044 560.473 260.249L514.186 325.046C514.682 325.706 515.154 326.381 515.596 327.075L561.357 263.015C561.326 262.906 561.295 262.798 561.264 262.685Z" fill="#A84600" fill-opacity="0.25"/>
<path d="M563.415 260.136L655.827 130.766C654.912 130.941 654.467 130.476 654.098 129.184L562.303 257.685C562.686 258.492 563.062 259.306 563.411 260.133L563.415 260.136Z" fill="#A84600" fill-opacity="0.25"/>
<path d="M660.075 124.82L709.873 55.1073C709.567 54.5681 709.338 53.9475 709.195 53.2182C709.141 52.935 709.083 52.6247 709.001 52.326L657.021 125.095C657.718 125.883 658.455 125.685 660.075 124.82Z" fill="#A84600" fill-opacity="0.25"/>
<path d="M429.762 443.233L388.215 501.397C388.916 501.765 389.653 502.064 390.432 502.293L431.347 445.017C430.813 444.435 430.289 443.83 429.762 443.233Z" fill="#A84600" fill-opacity="0.25"/>
<path d="M252.608 594.272C252.178 594.268 251.782 594.291 251.422 594.357L184.721 687.732C184.818 688.303 184.903 688.877 184.981 689.451C185.055 690.002 185.186 690.448 185.384 690.805L254.763 593.682C254.228 594.078 253.511 594.283 252.608 594.276V594.272Z" fill="#A84600" fill-opacity="0.25"/>
<path d="M255.917 590.839C255.921 591.424 255.844 591.936 255.692 592.383L259.735 586.723C259.7 586.731 259.665 586.735 259.63 586.742C257.467 587.161 255.894 588.317 255.917 590.839Z" fill="#A84600" fill-opacity="0.25"/>
<path d="M520.802 221.252C519.632 221.775 518.62 222.555 518.136 224.177C517.744 225.484 516.38 226.586 515.272 227.571C513.923 228.77 512.57 229.98 511.121 230.802L506.885 236.733C507.532 237.164 508.156 237.618 508.772 238.095L520.802 221.252Z" fill="#A84600" fill-opacity="0.25"/>
<path d="M587.173 128.338L669.31 13.3521C668.183 13.5615 667.062 13.7904 665.95 14.0542L585.324 126.922C585.991 127.295 586.603 127.772 587.169 128.342L587.173 128.338Z" fill="#A84600" fill-opacity="0.25"/>
<path d="M391.718 401.959C391.365 401.869 391.013 401.776 390.66 401.687C390.137 401.555 389.648 401.481 389.199 401.481L383.885 408.922C382.618 411.796 381.537 414.744 380.471 417.7L391.714 401.959H391.718Z" fill="#A84600" fill-opacity="0.25"/>
<path d="M366.418 434.408C366.174 434.419 365.918 434.431 365.658 434.435L312.317 509.105C314.976 508.581 316.604 506.89 317.898 504.57C318.561 503.379 319.418 501.676 320.669 501.42L368.565 434.373C368.003 434.361 367.352 434.408 366.422 434.408H366.418Z" fill="#A84600" fill-opacity="0.25"/>
<path d="M574.421 47.6516L584.804 33.1164C584.157 32.6548 583.494 32.2513 582.804 31.9138L572.375 46.515C573.17 46.7555 573.898 47.0814 574.421 47.6516Z" fill="#A84600" fill-opacity="0.25"/>
<path d="M313.293 409.205L299.569 428.418C300.104 428.996 300.658 429.555 301.236 430.086L317.025 407.983C315.917 408.759 314.688 409.166 313.293 409.205Z" fill="#A84600" fill-opacity="0.25"/>
<path d="M420.239 555.096L343.322 662.77C343.911 662.987 344.671 662.999 345.578 662.855C345.783 662.824 345.977 662.801 346.171 662.785L422.712 555.635C421.875 555.577 421.041 555.399 420.239 555.096Z" fill="#A84600" fill-opacity="0.25"/>
<path d="M608.203 291.969L561.307 357.62C561.233 359.005 560.954 360.424 560.474 361.879C560.28 362.469 560.028 363.058 559.854 363.652L611.536 291.302C611.334 291.379 611.133 291.457 610.935 291.538C609.873 291.973 608.955 292.109 608.203 291.965V291.969Z" fill="#A84600" fill-opacity="0.25"/>
<path d="M553.703 370.126C553.206 370.2 552.664 370.2 552.214 370.347L551.272 371.666C551.319 372.446 552.327 372.648 552.819 373.102C552.877 373.156 552.935 373.21 552.989 373.264L555.509 369.738C554.943 369.905 554.338 370.033 553.703 370.126Z" fill="#A84600" fill-opacity="0.25"/>
<path d="M615.241 286.115L706.951 157.727C706.405 157.156 705.858 156.586 705.312 156.02L611.354 287.554C612.729 287.248 614.136 286.938 615.241 286.115Z" fill="#A84600" fill-opacity="0.25"/>
<path d="M708.433 155.659L759.674 83.9294C758.875 83.72 758.077 83.4989 757.282 83.2777L706.782 153.972C707.333 154.534 707.883 155.1 708.433 155.663V155.659Z" fill="#A84600" fill-opacity="0.25"/>
<path d="M457.175 504.256C457.175 503.977 457.167 503.701 457.152 503.422L454.206 507.542C456.148 507.829 457.183 506.595 457.171 504.252L457.175 504.256Z" fill="#A84600" fill-opacity="0.25"/>
<path d="M218.525 591.141L209.15 604.268C209.549 605.18 210.619 606.274 209.599 607.034C208.82 607.616 208.018 607.337 207.305 606.848L178.129 647.692C178.951 647.917 179.726 648.188 180.334 648.607L220.866 591.867C220.002 591.517 219.227 591.273 218.525 591.141Z" fill="#A84600" fill-opacity="0.25"/>
<path d="M577.042 93.255L624.969 26.1649C623.911 26.3085 622.856 26.452 621.798 26.6033L576.774 89.6319C577.115 90.9896 577.189 92.1805 577.046 93.255H577.042Z" fill="#A84600" fill-opacity="0.25"/>
<path d="M296.089 483.533C296.53 484.286 297.143 484.317 297.79 484.177L305.797 472.97C304.073 473.498 302.577 474.27 301.294 475.275L295.926 482.789C295.895 483.025 295.934 483.27 296.089 483.533Z" fill="#A84600" fill-opacity="0.25"/>
<path d="M309.359 467.982L342.891 421.04C342.19 420.652 341.547 420.175 341.039 419.632L306.832 467.52C307.758 467.489 308.875 467.132 309.359 467.982Z" fill="#A84600" fill-opacity="0.25"/>
<path d="M304.438 571.105C304.841 570.834 305.286 570.333 305.337 569.895C305.387 569.457 305.069 569.154 304.686 569.061L302.465 572.168C303.139 571.889 303.794 571.54 304.438 571.105Z" fill="#A84600" fill-opacity="0.25"/>
<path d="M304.685 569.061C305.073 569.158 305.387 569.461 305.337 569.895C305.286 570.333 304.84 570.83 304.437 571.105C303.798 571.54 303.139 571.889 302.465 572.168L294.888 582.774C296.337 582.987 297.841 582.188 299.457 580.377L321.518 549.495C320.665 549.208 319.832 549.041 319.029 548.979L304.682 569.061H304.685Z" fill="#A84600" fill-opacity="0.25"/>
<path d="M292.031 586.777L240.012 659.601C240.264 659.841 240.508 660.117 240.74 660.442C241.054 660.881 241.252 661.3 241.368 661.703L294.484 587.344C293.659 587.196 292.837 587.01 292.031 586.777Z" fill="#A84600" fill-opacity="0.25"/>
<path d="M504.473 293.043C502.419 293.699 501.462 294.917 501.896 296.985L504.779 292.946C504.678 292.977 504.574 293.012 504.473 293.043Z" fill="#A84600" fill-opacity="0.25"/>
<path d="M526.034 261.766C526.243 261.995 526.414 262.227 526.553 262.468L558.074 218.342C557.668 217.885 557.257 217.431 556.854 216.969C556.726 216.826 556.602 216.694 556.478 216.577L525.042 260.586C525.356 260.986 525.685 261.382 526.038 261.766H526.034Z" fill="#A84600" fill-opacity="0.25"/>
<path d="M637.882 106.619C637.452 105.92 636.968 105.253 636.44 104.636L604.365 149.542C604.416 150.709 604.559 151.838 604.803 152.932L637.886 106.623L637.882 106.619Z" fill="#A84600" fill-opacity="0.25"/>
<path d="M567.449 205.219C565.697 206.333 564.03 207.566 562.41 208.846C562.081 209.106 561.775 209.347 561.484 209.572L558.333 213.982C558.585 214.521 559.054 215.161 559.74 216.011L567.449 205.219Z" fill="#A84600" fill-opacity="0.25"/>
<path d="M638.704 103.158C638.929 103.601 639.15 104.058 639.378 104.524L700.409 19.0893C700.327 18.6006 700.021 18.1739 699.343 17.8829C699.103 17.7821 698.874 17.6657 698.641 17.5609L638.173 102.212C638.355 102.511 638.533 102.825 638.704 103.158Z" fill="#A84600" fill-opacity="0.25"/>
<path d="M411.205 419.942L360.267 491.249C361.022 491.714 361.611 492.269 361.953 492.89L412.414 422.25C411.809 421.56 411.391 420.803 411.205 419.942Z" fill="#A84600" fill-opacity="0.25"/>
<path d="M457.72 551.9L354.511 696.387C355.018 697.011 355.526 697.632 356.038 698.253L460.104 552.571C459.267 552.458 458.48 552.218 457.724 551.9H457.72Z" fill="#A84600" fill-opacity="0.25"/>
<path d="M656.857 273.124L560.977 407.347C561.457 408.08 562.221 408.309 563.112 408.359L659.217 273.822C658.431 273.539 657.648 273.306 656.857 273.124Z" fill="#A84600" fill-opacity="0.25"/>
<path d="M660.868 271.51L725.623 180.862C725.166 180.168 724.709 179.473 724.251 178.783L658.771 270.447C659.465 270.812 660.167 271.169 660.868 271.514V271.51Z" fill="#A84600" fill-opacity="0.25"/>
<path d="M727.125 178.763L764.948 125.813C764.688 125.068 764.25 124.389 763.514 123.815L725.769 176.653C726.226 177.347 726.675 178.053 727.125 178.759V178.763Z" fill="#A84600" fill-opacity="0.25"/>
<path d="M371.025 577.634C370.347 577.599 369.676 577.564 369.014 577.545L298.93 675.656C299.123 675.986 299.368 676.316 299.67 676.646C299.93 676.933 300.24 677.158 300.55 677.387L371.781 577.673C371.529 577.665 371.277 577.653 371.021 577.638L371.025 577.634Z" fill="#A84600" fill-opacity="0.25"/>
<path d="M585.204 274.897L546.036 329.729C546.435 330.47 546.877 331.203 547.404 331.819L587.552 275.618C586.746 275.467 585.967 275.222 585.208 274.901L585.204 274.897Z" fill="#A84600" fill-opacity="0.25"/>
<path d="M590.041 272.127L686.658 136.868C686.108 136.306 685.558 135.74 685.011 135.173L587.34 271.902C588.231 272.088 589.13 272.162 590.041 272.123V272.127Z" fill="#A84600" fill-opacity="0.25"/>
<path d="M688.201 134.715L738.162 64.7741C737.213 64.7935 736.256 64.8052 735.298 64.7819L686.558 133.012C687.104 133.579 687.654 134.149 688.201 134.715Z" fill="#A84600" fill-opacity="0.25"/>
<path d="M443.66 474.584C443.718 473.983 443.784 473.382 443.85 472.78L427.901 495.105C428.742 495.248 429.572 495.427 430.393 495.621L443.687 477.009C443.571 476.252 443.578 475.438 443.66 474.584Z" fill="#A84600" fill-opacity="0.25"/>
<path d="M512.814 823.65L513.601 822.549C513.136 822.832 512.795 823.177 512.814 823.65Z" fill="#A84600" fill-opacity="0.25"/>
<path d="M539.044 785.693C539.471 785.549 539.878 785.39 540.273 785.212L555.737 763.566C554.927 763.512 554.16 763.244 553.454 762.759L535.766 787.524C536.746 786.732 537.835 786.096 539.048 785.693H539.044Z" fill="#A84600" fill-opacity="0.25"/>
<path d="M513.601 822.549L515.675 819.647C515.609 818.619 515.279 817.704 514.756 816.928L472.441 876.162C472.794 876.337 473.155 876.508 473.53 876.671C473.879 876.822 474.244 876.973 474.6 877.14L512.811 823.65C512.795 823.173 513.136 822.832 513.597 822.549H513.601Z" fill="#A84600" fill-opacity="0.25"/>
<path d="M525.878 804.212C527.184 804.317 527.242 803.013 527.568 802.199C528.436 800.038 529.041 797.745 529.971 795.624L524.545 803.223C524.824 803.739 525.208 804.154 525.878 804.208V804.212Z" fill="#A84600" fill-opacity="0.25"/>
<path d="M489.983 757.076C489.413 756.529 488.762 756.114 488.021 755.819L489.983 757.076Z" fill="#A84600" fill-opacity="0.25"/>
<path d="M723.722 426.013C723.901 425.714 724.083 425.412 724.261 425.109L722.943 426.956C723.234 426.7 723.498 426.389 723.722 426.013Z" fill="#A84600" fill-opacity="0.25"/>
<path d="M735.76 412.134C735.958 412.153 736.156 412.168 736.35 412.188L741.403 405.112C740.95 404.41 740.5 403.704 740.059 402.994L733.617 412.013C734.249 412.013 734.958 412.06 735.76 412.137V412.134Z" fill="#A84600" fill-opacity="0.25"/>
<path d="M569.589 641.632L488.021 755.819C488.758 756.114 489.413 756.533 489.983 757.076L571.213 643.359C570.57 642.854 570.039 642.272 569.589 641.632Z" fill="#A84600" fill-opacity="0.25"/>
<path d="M442.386 725.17C441.847 724.588 441.312 724.006 440.777 723.421L442.386 725.17Z" fill="#A84600" fill-opacity="0.25"/>
<path d="M501.764 638.044L440.78 723.417C441.315 724.002 441.85 724.584 442.389 725.166L502.299 641.299C502.144 640.209 501.966 639.126 501.768 638.04L501.764 638.044Z" fill="#A84600" fill-opacity="0.25"/>
<path d="M527.464 606.068C527.425 605.82 527.483 605.572 527.704 605.335C529.343 603.589 528.592 602.802 527.479 602.046L506.147 631.911C506.981 632.07 507.81 632.245 508.632 632.439L527.468 606.072L527.464 606.068Z" fill="#A84600" fill-opacity="0.25"/>
<path d="M653.609 429.481L713.132 346.153C712.341 345.932 711.555 345.703 710.779 345.443L651.105 428.977C652.04 428.845 652.931 428.969 653.605 429.477L653.609 429.481Z" fill="#A84600" fill-opacity="0.25"/>
<path d="M504.407 638.347L506.613 635.259C504.283 635.108 504.004 635.658 504.407 638.347Z" fill="#A84600" fill-opacity="0.25"/>
<path d="M539.734 584.892L530.057 598.442C530.979 598.795 531.553 599.311 531.867 599.912L539.397 589.368C539.428 587.879 539.529 586.385 539.734 584.896V584.892Z" fill="#A84600" fill-opacity="0.25"/>
<path d="M509.844 577.467L403.178 726.791C403.492 726.846 403.821 726.923 404.151 727.013C404.639 727.141 405.127 727.257 405.619 727.373L510.666 580.322C510.356 579.511 510.089 578.569 509.844 577.471V577.467Z" fill="#A84600" fill-opacity="0.25"/>
<path d="M622.817 419.314C623.344 419.911 623.872 420.505 624.395 421.106L682.813 339.326C682.104 339.015 681.402 338.662 680.705 338.274L622.813 419.314H622.817Z" fill="#A84600" fill-opacity="0.25"/>
<path d="M727.644 276.568L740.542 258.511C740.588 257.107 740.639 255.702 740.693 254.294L724.811 276.53C725.764 276.437 726.706 276.452 727.644 276.568Z" fill="#A84600" fill-opacity="0.25"/>
<path d="M515.488 569.561L512.178 574.197C512.348 574.849 512.496 575.5 512.608 576.164C512.678 576.563 512.751 576.928 512.833 577.281L516.46 572.203C516.061 571.431 515.736 570.558 515.488 569.565V569.561Z" fill="#A84600" fill-opacity="0.25"/>
<path d="M551.737 863.695L551.365 864.219C551.52 864.145 551.637 863.951 551.737 863.695Z" fill="#A84600" fill-opacity="0.25"/>
<path d="M536.614 888.871C536.018 888.37 535.421 887.874 534.828 887.37L530.32 893.681C531.123 893.739 531.917 893.937 532.708 894.34L536.614 888.871Z" fill="#A84600" fill-opacity="0.25"/>
<path d="M480.669 569.038L377.463 713.517C378.122 713.924 378.769 714.355 379.397 714.809L482.277 570.787C481.73 570.283 481.192 569.701 480.665 569.042L480.669 569.038Z" fill="#A84600" fill-opacity="0.25"/>
<path d="M667.066 311.299C666.771 310.802 666.233 310.348 665.806 309.871L591.207 414.302C592.064 414.337 592.92 414.461 593.792 414.686L667.326 311.745C667.24 311.597 667.155 311.446 667.066 311.299Z" fill="#A84600" fill-opacity="0.25"/>
<path d="M669.802 307.551C669.949 307.582 670.097 307.617 670.244 307.652L676.042 299.537C675.348 298.994 674.794 298.435 674.402 297.83L667.853 307.001C668.508 307.156 669.182 307.431 669.802 307.555V307.551Z" fill="#A84600" fill-opacity="0.25"/>
<path d="M690.969 274.641C691.907 274.691 692.837 274.722 693.763 274.73L739.733 210.378C739.237 209.742 738.721 209.129 738.178 208.551L690.969 274.641Z" fill="#A84600" fill-opacity="0.25"/>
<path d="M740.962 207.085C741.175 207.353 741.373 207.593 741.562 207.818L762.483 178.534C763.479 176.133 764.324 173.658 764.948 171.082L740.066 205.917C740.361 206.309 740.656 206.701 740.966 207.089L740.962 207.085Z" fill="#A84600" fill-opacity="0.25"/>
<path d="M460.333 749.314C459.597 749.011 458.849 748.72 458.101 748.433L460.333 749.314Z" fill="#A84600" fill-opacity="0.25"/>
<path d="M511.41 677.81C510.961 677.076 510.538 676.335 510.147 675.579L486.908 708.11C488.16 707.687 489.416 707.268 490.668 706.849L511.41 677.813V677.81Z" fill="#A84600" fill-opacity="0.25"/>
<path d="M541.358 633.129C542.048 632.679 542.056 631.876 541.974 631.023L540.432 633.18C540.715 633.331 541.017 633.35 541.354 633.129H541.358Z" fill="#A84600" fill-opacity="0.25"/>
<path d="M675.263 448.435L739.405 358.644C738.65 358.268 738.053 357.802 737.565 357.216L672.93 447.698C673.705 447.958 674.48 448.21 675.263 448.435Z" fill="#A84600" fill-opacity="0.25"/>
<path d="M538.629 636.512C538.548 636.349 538.47 636.194 538.385 636.043L512.182 672.724C512.527 673.55 512.895 674.369 513.29 675.175L539.796 638.067C539.362 637.745 538.982 637.241 538.625 636.512H538.629Z" fill="#A84600" fill-opacity="0.25"/>
<path d="M552.245 617.256C552.253 617.023 552.272 616.798 552.295 616.569L544.292 627.772C544.629 628.672 544.943 629.58 545.199 630.503L552.702 620.002C552.357 619.211 552.202 618.338 552.245 617.256Z" fill="#A84600" fill-opacity="0.25"/>
<path d="M484.176 711.938L458.104 748.437C458.852 748.724 459.597 749.011 460.337 749.318L487.936 710.685C486.684 711.104 485.432 711.523 484.18 711.942L484.176 711.938Z" fill="#A84600" fill-opacity="0.25"/>
<path d="M503.776 785.468C503.869 784.638 503.83 783.912 503.609 783.268L499.474 789.056C501.772 789.161 503.438 788.451 503.776 785.468Z" fill="#A84600" fill-opacity="0.25"/>
<path d="M497.497 795.825L576.666 685.001C576.708 683.562 576.778 682.127 576.883 680.696L503.613 783.268C503.834 783.912 503.876 784.638 503.78 785.468C503.442 788.447 501.776 789.161 499.478 789.056L498.199 790.848C498.547 792.617 497.799 794.223 497.501 795.825H497.497Z" fill="#A84600" fill-opacity="0.25"/>
<path d="M493.951 800.344C492.773 800.41 491.11 800.228 490.974 802.055C490.881 803.289 490.122 804.604 490.35 805.83L494.284 800.321C494.176 800.333 494.063 800.34 493.947 800.348L493.951 800.344Z" fill="#A84600" fill-opacity="0.25"/>
<path d="M538.184 835.598C537.936 835.137 537.727 834.706 537.545 834.295L496.152 892.242C496.734 892.769 497.319 893.293 497.854 893.863L538.735 836.638C538.556 836.3 538.378 835.951 538.188 835.598H538.184Z" fill="#A84600" fill-opacity="0.25"/>
</svg>
