<svg width="99" height="157" viewBox="0 0 99 157" fill="none" xmlns="http://www.w3.org/2000/svg">
<mask id="path-1-outside-1_80_608" maskUnits="userSpaceOnUse" x="0" y="0" width="99" height="157" fill="black">
<rect fill="white" width="99" height="157"/>
<path d="M65.421 138.013C66.7564 137.063 67.7176 136.648 68.7596 136.325C69.3696 136.136 70.4671 137.465 70.5202 135.984C70.5664 134.69 70.2614 133.21 68.5656 132.894C67.4334 132.684 66.2897 132.786 65.1738 133.164C63.9561 133.577 62.8956 133.752 61.641 132.774C60.5551 131.928 58.9285 131.865 57.8195 133.127C56.8699 134.206 55.8671 134.344 54.5987 133.823C53.3603 133.314 52.5216 133.482 52.0248 135.027C51.0683 137.99 50.2319 138.532 47.1497 138.521C45.6225 138.514 44.4025 138.975 43.4899 140.183C41.6877 142.577 39.472 144.03 36.3066 143.52C35.4402 143.382 34.7078 143.813 34.0447 144.357C33.1597 145.084 32.2748 145.817 31.3483 146.486C30.2578 147.272 29.5623 147.297 29.3844 145.623C29.1095 143.041 26.7713 142.141 24.47 143.467C22.0602 144.853 19.2622 145.423 16.8801 146.915C16.3348 147.256 15.6532 146.88 15.0317 146.723C13.456 146.327 11.9542 145.607 10.2074 146.121C9.19775 146.419 8.59703 145.939 9.19544 144.749C9.85624 143.43 10.1289 142.001 10.316 140.538C10.554 138.691 11.1894 137.024 12.3978 135.514C14.0659 133.429 14.3617 130.56 16.187 128.519C16.4919 128.178 16.4966 127.627 15.8473 127.502C13.7332 127.097 11.7416 125.688 9.42649 127.037C8.41912 127.625 3.8282 125.812 3.17664 124.827C2.78848 124.242 3.13042 123.741 3.34299 123.216C5.18675 118.686 7.04207 114.162 8.86504 109.624C10.3622 105.899 11.2541 102.037 11.8294 98.0543C12.1875 95.573 13.4814 93.2855 14.1168 90.8157C16.2563 82.4817 16.7299 73.8848 18.2964 65.4654C19.5187 58.9024 19.6688 52.1988 20.9604 45.6427C21.7783 41.4965 23.9155 37.8068 24.9552 33.7436C26.9515 25.9422 29.456 18.2401 29.456 10.056C29.456 8.85452 29.6432 7.64845 29.8211 6.45393C30.1838 4.0372 32.5706 2.53828 34.9504 3.12862C35.6874 3.3108 35.6828 3.91729 35.9254 4.40386C37.0414 6.62919 36.6948 9.28113 38.0857 11.458C38.7534 12.5027 39.3749 13.4366 40.5348 13.9924C42.0828 14.7326 43.6355 15.4982 45.0749 16.4229C47.0365 17.6843 48.9958 17.7328 51.0336 16.7804C53.9079 15.4336 57.0039 14.336 58.0737 10.8469C58.3232 10.0352 59.0579 9.88301 59.721 9.72389C61.1443 9.38029 62.5837 9.14738 64.0647 9.1912C64.9219 9.21656 65.793 9.03899 65.6335 10.3811C65.5758 10.8815 65.9709 11.2136 66.3775 11.4027C68.0156 12.1637 68.7943 13.6349 69.4227 15.1708C70.4856 17.7673 71.6038 20.3432 73.205 22.6423C74.8431 24.9968 74.6999 27.4573 74.2609 30.0793C73.8311 32.6436 73.2651 35.2725 73.4453 37.823C73.6255 40.3365 75.1689 42.5434 76.7239 44.5704C77.5995 45.7119 78.3481 46.971 80.0255 47.2454C81.8508 47.5452 83.3665 47.3031 84.2121 45.5044C85.0647 43.6964 86.4487 43.5788 88.0013 44.2775C89.7018 45.0432 91.3723 45.7442 93.3016 45.5482C94.168 45.4605 94.54 46.0417 94.6162 46.8465C94.7895 48.6544 94.4984 50.58 95.9332 52.0812C96.0256 52.178 96.0094 52.5655 95.9609 52.5839C94.3736 53.1443 94.0201 55.5841 91.839 55.252C90.3672 55.0283 89.7596 55.8354 89.6417 57.2121C89.5609 58.1599 89.3991 59.1031 89.249 60.0439C89.0687 61.1739 88.4657 61.9187 87.4745 62.5829C85.0693 64.1971 82.299 65.2417 80.1688 67.2895C79.3024 68.122 78.3805 68.2096 77.6273 67.0381C77.075 66.178 75.9845 66.1019 75.2914 65.59C73.3321 64.1441 71.0955 65.0319 69.2425 64.513C66.5924 63.7705 65.5619 65.4954 63.9261 66.3971C63.2977 66.743 63.2907 67.4302 63.2561 68.0851C63.0527 71.95 63.2676 76.0109 65.0259 79.2717C67.0268 82.9844 67.6298 87.2529 70.1459 90.6773C71.0562 91.9157 70.3261 92.785 69.261 93.2739C67.9671 93.8666 67.6182 94.7982 67.8909 96.0366C68.1635 97.2703 67.6691 97.72 66.4954 97.9367C64.5338 98.2965 64.2265 99.348 65.5804 100.863C66.0425 101.38 66.738 101.758 66.664 102.56C66.5092 104.253 66.7541 105.517 68.9445 105.143C69.4042 105.065 69.6884 105.457 69.6676 105.846C69.6214 106.649 69.6815 107.691 68.8012 107.998C66.1973 108.904 64.707 110.652 63.6766 113.2C62.8494 115.25 60.5181 115.714 58.5519 114.718C56.7359 113.8 56.3292 114.102 56.1467 116.21C56.0012 117.875 56.417 119.171 57.8033 120.202C58.6097 120.803 59.2959 121.592 59.9474 122.369C60.6475 123.206 61.5093 123.638 62.5652 123.753C62.8795 123.787 63.3831 123.697 63.4802 123.859C65.2569 126.799 67.9163 125.007 70.0211 124.814C73.3251 124.512 75.5894 126.022 77.3454 128.224C79.6605 131.128 80.4738 131.637 84.2676 130.849C87.322 130.214 90.4111 129.467 93.3431 131.342C93.7706 131.616 94.235 131.842 94.6393 132.145C95.2447 132.594 96.058 133.102 95.7668 133.929C95.4965 134.69 94.6624 134.261 94.0594 134.197C92.985 134.079 92.4559 134.706 92.0146 135.562C89.9514 139.558 87.6085 143.414 86.5087 147.86C86.1321 149.378 85.3096 150.796 84.6257 152.225C83.9788 153.574 80.0856 154.538 78.972 153.667C78.496 153.295 78.6531 152.88 78.9673 152.514C80.4276 150.81 79.166 149.382 78.4036 148.008C77.6226 146.599 76.3842 146.493 74.7854 146.852C72.6643 147.33 70.4809 146.97 68.3946 146.239C67.9348 146.078 67.5281 145.909 67.5143 145.386C67.5004 144.883 67.9325 144.835 68.3206 144.779C70.1875 144.519 70.1274 143.513 68.9722 142.552C67.4542 141.29 68.1681 138.645 65.421 138.009V138.013Z"/>
</mask>
<path d="M65.421 138.013C66.7564 137.063 67.7176 136.648 68.7596 136.325C69.3696 136.136 70.4671 137.465 70.5202 135.984C70.5664 134.69 70.2614 133.21 68.5656 132.894C67.4334 132.684 66.2897 132.786 65.1738 133.164C63.9561 133.577 62.8956 133.752 61.641 132.774C60.5551 131.928 58.9285 131.865 57.8195 133.127C56.8699 134.206 55.8671 134.344 54.5987 133.823C53.3603 133.314 52.5216 133.482 52.0248 135.027C51.0683 137.99 50.2319 138.532 47.1497 138.521C45.6225 138.514 44.4025 138.975 43.4899 140.183C41.6877 142.577 39.472 144.03 36.3066 143.52C35.4402 143.382 34.7078 143.813 34.0447 144.357C33.1597 145.084 32.2748 145.817 31.3483 146.486C30.2578 147.272 29.5623 147.297 29.3844 145.623C29.1095 143.041 26.7713 142.141 24.47 143.467C22.0602 144.853 19.2622 145.423 16.8801 146.915C16.3348 147.256 15.6532 146.88 15.0317 146.723C13.456 146.327 11.9542 145.607 10.2074 146.121C9.19775 146.419 8.59703 145.939 9.19544 144.749C9.85624 143.43 10.1289 142.001 10.316 140.538C10.554 138.691 11.1894 137.024 12.3978 135.514C14.0659 133.429 14.3617 130.56 16.187 128.519C16.4919 128.178 16.4966 127.627 15.8473 127.502C13.7332 127.097 11.7416 125.688 9.42649 127.037C8.41912 127.625 3.8282 125.812 3.17664 124.827C2.78848 124.242 3.13042 123.741 3.34299 123.216C5.18675 118.686 7.04207 114.162 8.86504 109.624C10.3622 105.899 11.2541 102.037 11.8294 98.0543C12.1875 95.573 13.4814 93.2855 14.1168 90.8157C16.2563 82.4817 16.7299 73.8848 18.2964 65.4654C19.5187 58.9024 19.6688 52.1988 20.9604 45.6427C21.7783 41.4965 23.9155 37.8068 24.9552 33.7436C26.9515 25.9422 29.456 18.2401 29.456 10.056C29.456 8.85452 29.6432 7.64845 29.8211 6.45393C30.1838 4.0372 32.5706 2.53828 34.9504 3.12862C35.6874 3.3108 35.6828 3.91729 35.9254 4.40386C37.0414 6.62919 36.6948 9.28113 38.0857 11.458C38.7534 12.5027 39.3749 13.4366 40.5348 13.9924C42.0828 14.7326 43.6355 15.4982 45.0749 16.4229C47.0365 17.6843 48.9958 17.7328 51.0336 16.7804C53.9079 15.4336 57.0039 14.336 58.0737 10.8469C58.3232 10.0352 59.0579 9.88301 59.721 9.72389C61.1443 9.38029 62.5837 9.14738 64.0647 9.1912C64.9219 9.21656 65.793 9.03899 65.6335 10.3811C65.5758 10.8815 65.9709 11.2136 66.3775 11.4027C68.0156 12.1637 68.7943 13.6349 69.4227 15.1708C70.4856 17.7673 71.6038 20.3432 73.205 22.6423C74.8431 24.9968 74.6999 27.4573 74.2609 30.0793C73.8311 32.6436 73.2651 35.2725 73.4453 37.823C73.6255 40.3365 75.1689 42.5434 76.7239 44.5704C77.5995 45.7119 78.3481 46.971 80.0255 47.2454C81.8508 47.5452 83.3665 47.3031 84.2121 45.5044C85.0647 43.6964 86.4487 43.5788 88.0013 44.2775C89.7018 45.0432 91.3723 45.7442 93.3016 45.5482C94.168 45.4605 94.54 46.0417 94.6162 46.8465C94.7895 48.6544 94.4984 50.58 95.9332 52.0812C96.0256 52.178 96.0094 52.5655 95.9609 52.5839C94.3736 53.1443 94.0201 55.5841 91.839 55.252C90.3672 55.0283 89.7596 55.8354 89.6417 57.2121C89.5609 58.1599 89.3991 59.1031 89.249 60.0439C89.0687 61.1739 88.4657 61.9187 87.4745 62.5829C85.0693 64.1971 82.299 65.2417 80.1688 67.2895C79.3024 68.122 78.3805 68.2096 77.6273 67.0381C77.075 66.178 75.9845 66.1019 75.2914 65.59C73.3321 64.1441 71.0955 65.0319 69.2425 64.513C66.5924 63.7705 65.5619 65.4954 63.9261 66.3971C63.2977 66.743 63.2907 67.4302 63.2561 68.0851C63.0527 71.95 63.2676 76.0109 65.0259 79.2717C67.0268 82.9844 67.6298 87.2529 70.1459 90.6773C71.0562 91.9157 70.3261 92.785 69.261 93.2739C67.9671 93.8666 67.6182 94.7982 67.8909 96.0366C68.1635 97.2703 67.6691 97.72 66.4954 97.9367C64.5338 98.2965 64.2265 99.348 65.5804 100.863C66.0425 101.38 66.738 101.758 66.664 102.56C66.5092 104.253 66.7541 105.517 68.9445 105.143C69.4042 105.065 69.6884 105.457 69.6676 105.846C69.6214 106.649 69.6815 107.691 68.8012 107.998C66.1973 108.904 64.707 110.652 63.6766 113.2C62.8494 115.25 60.5181 115.714 58.5519 114.718C56.7359 113.8 56.3292 114.102 56.1467 116.21C56.0012 117.875 56.417 119.171 57.8033 120.202C58.6097 120.803 59.2959 121.592 59.9474 122.369C60.6475 123.206 61.5093 123.638 62.5652 123.753C62.8795 123.787 63.3831 123.697 63.4802 123.859C65.2569 126.799 67.9163 125.007 70.0211 124.814C73.3251 124.512 75.5894 126.022 77.3454 128.224C79.6605 131.128 80.4738 131.637 84.2676 130.849C87.322 130.214 90.4111 129.467 93.3431 131.342C93.7706 131.616 94.235 131.842 94.6393 132.145C95.2447 132.594 96.058 133.102 95.7668 133.929C95.4965 134.69 94.6624 134.261 94.0594 134.197C92.985 134.079 92.4559 134.706 92.0146 135.562C89.9514 139.558 87.6085 143.414 86.5087 147.86C86.1321 149.378 85.3096 150.796 84.6257 152.225C83.9788 153.574 80.0856 154.538 78.972 153.667C78.496 153.295 78.6531 152.88 78.9673 152.514C80.4276 150.81 79.166 149.382 78.4036 148.008C77.6226 146.599 76.3842 146.493 74.7854 146.852C72.6643 147.33 70.4809 146.97 68.3946 146.239C67.9348 146.078 67.5281 145.909 67.5143 145.386C67.5004 144.883 67.9325 144.835 68.3206 144.779C70.1875 144.519 70.1274 143.513 68.9722 142.552C67.4542 141.29 68.1681 138.645 65.421 138.009V138.013Z" fill="#A1D36D"/>
<path d="M65.421 138.013C66.7564 137.063 67.7176 136.648 68.7596 136.325C69.3696 136.136 70.4671 137.465 70.5202 135.984C70.5664 134.69 70.2614 133.21 68.5656 132.894C67.4334 132.684 66.2897 132.786 65.1738 133.164C63.9561 133.577 62.8956 133.752 61.641 132.774C60.5551 131.928 58.9285 131.865 57.8195 133.127C56.8699 134.206 55.8671 134.344 54.5987 133.823C53.3603 133.314 52.5216 133.482 52.0248 135.027C51.0683 137.99 50.2319 138.532 47.1497 138.521C45.6225 138.514 44.4025 138.975 43.4899 140.183C41.6877 142.577 39.472 144.03 36.3066 143.52C35.4402 143.382 34.7078 143.813 34.0447 144.357C33.1597 145.084 32.2748 145.817 31.3483 146.486C30.2578 147.272 29.5623 147.297 29.3844 145.623C29.1095 143.041 26.7713 142.141 24.47 143.467C22.0602 144.853 19.2622 145.423 16.8801 146.915C16.3348 147.256 15.6532 146.88 15.0317 146.723C13.456 146.327 11.9542 145.607 10.2074 146.121C9.19775 146.419 8.59703 145.939 9.19544 144.749C9.85624 143.43 10.1289 142.001 10.316 140.538C10.554 138.691 11.1894 137.024 12.3978 135.514C14.0659 133.429 14.3617 130.56 16.187 128.519C16.4919 128.178 16.4966 127.627 15.8473 127.502C13.7332 127.097 11.7416 125.688 9.42649 127.037C8.41912 127.625 3.8282 125.812 3.17664 124.827C2.78848 124.242 3.13042 123.741 3.34299 123.216C5.18675 118.686 7.04207 114.162 8.86504 109.624C10.3622 105.899 11.2541 102.037 11.8294 98.0543C12.1875 95.573 13.4814 93.2855 14.1168 90.8157C16.2563 82.4817 16.7299 73.8848 18.2964 65.4654C19.5187 58.9024 19.6688 52.1988 20.9604 45.6427C21.7783 41.4965 23.9155 37.8068 24.9552 33.7436C26.9515 25.9422 29.456 18.2401 29.456 10.056C29.456 8.85452 29.6432 7.64845 29.8211 6.45393C30.1838 4.0372 32.5706 2.53828 34.9504 3.12862C35.6874 3.3108 35.6828 3.91729 35.9254 4.40386C37.0414 6.62919 36.6948 9.28113 38.0857 11.458C38.7534 12.5027 39.3749 13.4366 40.5348 13.9924C42.0828 14.7326 43.6355 15.4982 45.0749 16.4229C47.0365 17.6843 48.9958 17.7328 51.0336 16.7804C53.9079 15.4336 57.0039 14.336 58.0737 10.8469C58.3232 10.0352 59.0579 9.88301 59.721 9.72389C61.1443 9.38029 62.5837 9.14738 64.0647 9.1912C64.9219 9.21656 65.793 9.03899 65.6335 10.3811C65.5758 10.8815 65.9709 11.2136 66.3775 11.4027C68.0156 12.1637 68.7943 13.6349 69.4227 15.1708C70.4856 17.7673 71.6038 20.3432 73.205 22.6423C74.8431 24.9968 74.6999 27.4573 74.2609 30.0793C73.8311 32.6436 73.2651 35.2725 73.4453 37.823C73.6255 40.3365 75.1689 42.5434 76.7239 44.5704C77.5995 45.7119 78.3481 46.971 80.0255 47.2454C81.8508 47.5452 83.3665 47.3031 84.2121 45.5044C85.0647 43.6964 86.4487 43.5788 88.0013 44.2775C89.7018 45.0432 91.3723 45.7442 93.3016 45.5482C94.168 45.4605 94.54 46.0417 94.6162 46.8465C94.7895 48.6544 94.4984 50.58 95.9332 52.0812C96.0256 52.178 96.0094 52.5655 95.9609 52.5839C94.3736 53.1443 94.0201 55.5841 91.839 55.252C90.3672 55.0283 89.7596 55.8354 89.6417 57.2121C89.5609 58.1599 89.3991 59.1031 89.249 60.0439C89.0687 61.1739 88.4657 61.9187 87.4745 62.5829C85.0693 64.1971 82.299 65.2417 80.1688 67.2895C79.3024 68.122 78.3805 68.2096 77.6273 67.0381C77.075 66.178 75.9845 66.1019 75.2914 65.59C73.3321 64.1441 71.0955 65.0319 69.2425 64.513C66.5924 63.7705 65.5619 65.4954 63.9261 66.3971C63.2977 66.743 63.2907 67.4302 63.2561 68.0851C63.0527 71.95 63.2676 76.0109 65.0259 79.2717C67.0268 82.9844 67.6298 87.2529 70.1459 90.6773C71.0562 91.9157 70.3261 92.785 69.261 93.2739C67.9671 93.8666 67.6182 94.7982 67.8909 96.0366C68.1635 97.2703 67.6691 97.72 66.4954 97.9367C64.5338 98.2965 64.2265 99.348 65.5804 100.863C66.0425 101.38 66.738 101.758 66.664 102.56C66.5092 104.253 66.7541 105.517 68.9445 105.143C69.4042 105.065 69.6884 105.457 69.6676 105.846C69.6214 106.649 69.6815 107.691 68.8012 107.998C66.1973 108.904 64.707 110.652 63.6766 113.2C62.8494 115.25 60.5181 115.714 58.5519 114.718C56.7359 113.8 56.3292 114.102 56.1467 116.21C56.0012 117.875 56.417 119.171 57.8033 120.202C58.6097 120.803 59.2959 121.592 59.9474 122.369C60.6475 123.206 61.5093 123.638 62.5652 123.753C62.8795 123.787 63.3831 123.697 63.4802 123.859C65.2569 126.799 67.9163 125.007 70.0211 124.814C73.3251 124.512 75.5894 126.022 77.3454 128.224C79.6605 131.128 80.4738 131.637 84.2676 130.849C87.322 130.214 90.4111 129.467 93.3431 131.342C93.7706 131.616 94.235 131.842 94.6393 132.145C95.2447 132.594 96.058 133.102 95.7668 133.929C95.4965 134.69 94.6624 134.261 94.0594 134.197C92.985 134.079 92.4559 134.706 92.0146 135.562C89.9514 139.558 87.6085 143.414 86.5087 147.86C86.1321 149.378 85.3096 150.796 84.6257 152.225C83.9788 153.574 80.0856 154.538 78.972 153.667C78.496 153.295 78.6531 152.88 78.9673 152.514C80.4276 150.81 79.166 149.382 78.4036 148.008C77.6226 146.599 76.3842 146.493 74.7854 146.852C72.6643 147.33 70.4809 146.97 68.3946 146.239C67.9348 146.078 67.5281 145.909 67.5143 145.386C67.5004 144.883 67.9325 144.835 68.3206 144.779C70.1875 144.519 70.1274 143.513 68.9722 142.552C67.4542 141.29 68.1681 138.645 65.421 138.009V138.013Z" stroke="#008C38" stroke-width="6" mask="url(#path-1-outside-1_80_608)"/>
</svg>
